<mxfile host="app.diagrams.net" modified="2020-08-14T07:18:47.399Z" agent="5.0 (Macintosh; Intel Mac OS X 10_15_6) AppleWebKit/537.36 (KHTML, like Gecko) Chrome/84.0.4147.125 Safari/537.36" etag="6cEa-kjzverVxirdOZjS" version="13.6.2" type="github">
  <diagram id="R2lEEEUBdFMjLlhIrx00" name="Page-1">
    <mxGraphModel dx="1120" dy="614" grid="1" gridSize="10" guides="1" tooltips="1" connect="1" arrows="1" fold="1" page="1" pageScale="1" pageWidth="850" pageHeight="1100" math="0" shadow="0" extFonts="Permanent Marker^https://fonts.googleapis.com/css?family=Permanent+Marker">
      <root>
        <mxCell id="0" />
        <mxCell id="1" parent="0" />
        <mxCell id="C-vyLk0tnHw3VtMMgP7b-23" value="user" style="shape=table;startSize=30;container=1;collapsible=1;childLayout=tableLayout;fixedRows=1;rowLines=0;fontStyle=1;align=center;resizeLast=1;" parent="1" vertex="1">
          <mxGeometry x="110" y="100" width="250" height="220" as="geometry" />
        </mxCell>
        <mxCell id="C-vyLk0tnHw3VtMMgP7b-24" value="" style="shape=partialRectangle;collapsible=0;dropTarget=0;pointerEvents=0;fillColor=none;points=[[0,0.5],[1,0.5]];portConstraint=eastwest;top=0;left=0;right=0;bottom=1;" parent="C-vyLk0tnHw3VtMMgP7b-23" vertex="1">
          <mxGeometry y="30" width="250" height="30" as="geometry" />
        </mxCell>
        <mxCell id="C-vyLk0tnHw3VtMMgP7b-25" value="PK" style="shape=partialRectangle;overflow=hidden;connectable=0;fillColor=none;top=0;left=0;bottom=0;right=0;fontStyle=1;" parent="C-vyLk0tnHw3VtMMgP7b-24" vertex="1">
          <mxGeometry width="30" height="30" as="geometry" />
        </mxCell>
        <mxCell id="C-vyLk0tnHw3VtMMgP7b-26" value="id" style="shape=partialRectangle;overflow=hidden;connectable=0;fillColor=none;top=0;left=0;bottom=0;right=0;align=left;spacingLeft=6;fontStyle=5;" parent="C-vyLk0tnHw3VtMMgP7b-24" vertex="1">
          <mxGeometry x="30" width="220" height="30" as="geometry" />
        </mxCell>
        <mxCell id="S200XJqEQrXHh1j5I4fp-168" value="" style="shape=partialRectangle;collapsible=0;dropTarget=0;pointerEvents=0;fillColor=none;points=[[0,0.5],[1,0.5]];portConstraint=eastwest;top=0;left=0;right=0;bottom=1;" vertex="1" parent="C-vyLk0tnHw3VtMMgP7b-23">
          <mxGeometry y="60" width="250" height="30" as="geometry" />
        </mxCell>
        <mxCell id="S200XJqEQrXHh1j5I4fp-169" value="" style="shape=partialRectangle;overflow=hidden;connectable=0;fillColor=none;top=0;left=0;bottom=0;right=0;fontStyle=1;" vertex="1" parent="S200XJqEQrXHh1j5I4fp-168">
          <mxGeometry width="30" height="30" as="geometry" />
        </mxCell>
        <mxCell id="S200XJqEQrXHh1j5I4fp-170" value="email" style="shape=partialRectangle;overflow=hidden;connectable=0;fillColor=none;top=0;left=0;bottom=0;right=0;align=left;spacingLeft=6;fontStyle=5;" vertex="1" parent="S200XJqEQrXHh1j5I4fp-168">
          <mxGeometry x="30" width="220" height="30" as="geometry" />
        </mxCell>
        <mxCell id="C-vyLk0tnHw3VtMMgP7b-27" value="" style="shape=partialRectangle;collapsible=0;dropTarget=0;pointerEvents=0;fillColor=none;points=[[0,0.5],[1,0.5]];portConstraint=eastwest;top=0;left=0;right=0;bottom=0;" parent="C-vyLk0tnHw3VtMMgP7b-23" vertex="1">
          <mxGeometry y="90" width="250" height="30" as="geometry" />
        </mxCell>
        <mxCell id="C-vyLk0tnHw3VtMMgP7b-28" value="" style="shape=partialRectangle;overflow=hidden;connectable=0;fillColor=none;top=0;left=0;bottom=0;right=0;" parent="C-vyLk0tnHw3VtMMgP7b-27" vertex="1">
          <mxGeometry width="30" height="30" as="geometry" />
        </mxCell>
        <mxCell id="C-vyLk0tnHw3VtMMgP7b-29" value="" style="shape=partialRectangle;overflow=hidden;connectable=0;fillColor=none;top=0;left=0;bottom=0;right=0;align=left;spacingLeft=6;" parent="C-vyLk0tnHw3VtMMgP7b-27" vertex="1">
          <mxGeometry x="30" width="220" height="30" as="geometry" />
        </mxCell>
        <mxCell id="S200XJqEQrXHh1j5I4fp-171" value="" style="shape=partialRectangle;collapsible=0;dropTarget=0;pointerEvents=0;fillColor=none;points=[[0,0.5],[1,0.5]];portConstraint=eastwest;top=0;left=0;right=0;bottom=1;" vertex="1" parent="C-vyLk0tnHw3VtMMgP7b-23">
          <mxGeometry y="120" width="250" height="30" as="geometry" />
        </mxCell>
        <mxCell id="S200XJqEQrXHh1j5I4fp-172" value="" style="shape=partialRectangle;overflow=hidden;connectable=0;fillColor=none;top=0;left=0;bottom=0;right=0;fontStyle=1;" vertex="1" parent="S200XJqEQrXHh1j5I4fp-171">
          <mxGeometry width="30" height="30" as="geometry" />
        </mxCell>
        <mxCell id="S200XJqEQrXHh1j5I4fp-173" value="name" style="shape=partialRectangle;overflow=hidden;connectable=0;fillColor=none;top=0;left=0;bottom=0;right=0;align=left;spacingLeft=6;fontStyle=5;" vertex="1" parent="S200XJqEQrXHh1j5I4fp-171">
          <mxGeometry x="30" width="220" height="30" as="geometry" />
        </mxCell>
        <mxCell id="S200XJqEQrXHh1j5I4fp-96" value="" style="shape=partialRectangle;collapsible=0;dropTarget=0;pointerEvents=0;fillColor=none;points=[[0,0.5],[1,0.5]];portConstraint=eastwest;top=0;left=0;right=0;bottom=0;" vertex="1" parent="C-vyLk0tnHw3VtMMgP7b-23">
          <mxGeometry y="150" width="250" height="30" as="geometry" />
        </mxCell>
        <mxCell id="S200XJqEQrXHh1j5I4fp-97" value="" style="shape=partialRectangle;overflow=hidden;connectable=0;fillColor=none;top=0;left=0;bottom=0;right=0;" vertex="1" parent="S200XJqEQrXHh1j5I4fp-96">
          <mxGeometry width="30" height="30" as="geometry" />
        </mxCell>
        <mxCell id="S200XJqEQrXHh1j5I4fp-98" value="" style="shape=partialRectangle;overflow=hidden;connectable=0;fillColor=none;top=0;left=0;bottom=0;right=0;align=left;spacingLeft=6;" vertex="1" parent="S200XJqEQrXHh1j5I4fp-96">
          <mxGeometry x="30" width="220" height="30" as="geometry" />
        </mxCell>
        <mxCell id="S200XJqEQrXHh1j5I4fp-99" value="" style="shape=partialRectangle;collapsible=0;dropTarget=0;pointerEvents=0;fillColor=none;points=[[0,0.5],[1,0.5]];portConstraint=eastwest;top=0;left=0;right=0;bottom=0;" vertex="1" parent="C-vyLk0tnHw3VtMMgP7b-23">
          <mxGeometry y="180" width="250" height="20" as="geometry" />
        </mxCell>
        <mxCell id="S200XJqEQrXHh1j5I4fp-100" value="" style="shape=partialRectangle;overflow=hidden;connectable=0;fillColor=none;top=0;left=0;bottom=0;right=0;" vertex="1" parent="S200XJqEQrXHh1j5I4fp-99">
          <mxGeometry width="30" height="20" as="geometry" />
        </mxCell>
        <mxCell id="S200XJqEQrXHh1j5I4fp-101" value="" style="shape=partialRectangle;overflow=hidden;connectable=0;fillColor=none;top=0;left=0;bottom=0;right=0;align=left;spacingLeft=6;" vertex="1" parent="S200XJqEQrXHh1j5I4fp-99">
          <mxGeometry x="30" width="220" height="20" as="geometry" />
        </mxCell>
        <mxCell id="S200XJqEQrXHh1j5I4fp-159" style="edgeStyle=orthogonalEdgeStyle;rounded=0;orthogonalLoop=1;jettySize=auto;html=1;exitX=0;exitY=0.5;exitDx=0;exitDy=0;entryX=0;entryY=0.5;entryDx=0;entryDy=0;" edge="1" parent="1" source="C-vyLk0tnHw3VtMMgP7b-24" target="S200XJqEQrXHh1j5I4fp-106">
          <mxGeometry relative="1" as="geometry" />
        </mxCell>
        <mxCell id="S200XJqEQrXHh1j5I4fp-160" style="edgeStyle=orthogonalEdgeStyle;rounded=0;orthogonalLoop=1;jettySize=auto;html=1;exitX=0;exitY=0.5;exitDx=0;exitDy=0;entryX=1;entryY=0.5;entryDx=0;entryDy=0;" edge="1" parent="1" source="S200XJqEQrXHh1j5I4fp-129" target="S200XJqEQrXHh1j5I4fp-119">
          <mxGeometry relative="1" as="geometry" />
        </mxCell>
        <mxCell id="S200XJqEQrXHh1j5I4fp-161" style="edgeStyle=orthogonalEdgeStyle;rounded=0;orthogonalLoop=1;jettySize=auto;html=1;exitX=0;exitY=0.5;exitDx=0;exitDy=0;entryX=0;entryY=0.5;entryDx=0;entryDy=0;" edge="1" parent="1" source="S200XJqEQrXHh1j5I4fp-116" target="S200XJqEQrXHh1j5I4fp-109">
          <mxGeometry relative="1" as="geometry" />
        </mxCell>
        <mxCell id="S200XJqEQrXHh1j5I4fp-102" value="user_playlist" style="shape=table;startSize=30;container=1;collapsible=1;childLayout=tableLayout;fixedRows=1;rowLines=0;fontStyle=1;align=center;resizeLast=1;" vertex="1" parent="1">
          <mxGeometry x="110" y="360" width="250" height="180" as="geometry" />
        </mxCell>
        <mxCell id="S200XJqEQrXHh1j5I4fp-103" value="" style="shape=partialRectangle;collapsible=0;dropTarget=0;pointerEvents=0;fillColor=none;points=[[0,0.5],[1,0.5]];portConstraint=eastwest;top=0;left=0;right=0;bottom=1;" vertex="1" parent="S200XJqEQrXHh1j5I4fp-102">
          <mxGeometry y="30" width="250" height="30" as="geometry" />
        </mxCell>
        <mxCell id="S200XJqEQrXHh1j5I4fp-104" value="PK" style="shape=partialRectangle;overflow=hidden;connectable=0;fillColor=none;top=0;left=0;bottom=0;right=0;fontStyle=1;" vertex="1" parent="S200XJqEQrXHh1j5I4fp-103">
          <mxGeometry width="30" height="30" as="geometry" />
        </mxCell>
        <mxCell id="S200XJqEQrXHh1j5I4fp-105" value="Â id" style="shape=partialRectangle;overflow=hidden;connectable=0;fillColor=none;top=0;left=0;bottom=0;right=0;align=left;spacingLeft=6;fontStyle=5;" vertex="1" parent="S200XJqEQrXHh1j5I4fp-103">
          <mxGeometry x="30" width="220" height="30" as="geometry" />
        </mxCell>
        <mxCell id="S200XJqEQrXHh1j5I4fp-106" value="" style="shape=partialRectangle;collapsible=0;dropTarget=0;pointerEvents=0;fillColor=none;points=[[0,0.5],[1,0.5]];portConstraint=eastwest;top=0;left=0;right=0;bottom=0;" vertex="1" parent="S200XJqEQrXHh1j5I4fp-102">
          <mxGeometry y="60" width="250" height="30" as="geometry" />
        </mxCell>
        <mxCell id="S200XJqEQrXHh1j5I4fp-107" value="" style="shape=partialRectangle;overflow=hidden;connectable=0;fillColor=none;top=0;left=0;bottom=0;right=0;" vertex="1" parent="S200XJqEQrXHh1j5I4fp-106">
          <mxGeometry width="30" height="30" as="geometry" />
        </mxCell>
        <mxCell id="S200XJqEQrXHh1j5I4fp-108" value="user_id" style="shape=partialRectangle;overflow=hidden;connectable=0;fillColor=none;top=0;left=0;bottom=0;right=0;align=left;spacingLeft=6;" vertex="1" parent="S200XJqEQrXHh1j5I4fp-106">
          <mxGeometry x="30" width="220" height="30" as="geometry" />
        </mxCell>
        <mxCell id="S200XJqEQrXHh1j5I4fp-109" value="" style="shape=partialRectangle;collapsible=0;dropTarget=0;pointerEvents=0;fillColor=none;points=[[0,0.5],[1,0.5]];portConstraint=eastwest;top=0;left=0;right=0;bottom=0;" vertex="1" parent="S200XJqEQrXHh1j5I4fp-102">
          <mxGeometry y="90" width="250" height="40" as="geometry" />
        </mxCell>
        <mxCell id="S200XJqEQrXHh1j5I4fp-110" value="" style="shape=partialRectangle;overflow=hidden;connectable=0;fillColor=none;top=0;left=0;bottom=0;right=0;" vertex="1" parent="S200XJqEQrXHh1j5I4fp-109">
          <mxGeometry width="30" height="40" as="geometry" />
        </mxCell>
        <mxCell id="S200XJqEQrXHh1j5I4fp-111" value="playlist_id" style="shape=partialRectangle;overflow=hidden;connectable=0;fillColor=none;top=0;left=0;bottom=0;right=0;align=left;spacingLeft=6;" vertex="1" parent="S200XJqEQrXHh1j5I4fp-109">
          <mxGeometry x="30" width="220" height="40" as="geometry" />
        </mxCell>
        <mxCell id="S200XJqEQrXHh1j5I4fp-112" value="" style="shape=partialRectangle;collapsible=0;dropTarget=0;pointerEvents=0;fillColor=none;points=[[0,0.5],[1,0.5]];portConstraint=eastwest;top=0;left=0;right=0;bottom=0;" vertex="1" parent="S200XJqEQrXHh1j5I4fp-102">
          <mxGeometry y="130" width="250" height="30" as="geometry" />
        </mxCell>
        <mxCell id="S200XJqEQrXHh1j5I4fp-113" value="" style="shape=partialRectangle;overflow=hidden;connectable=0;fillColor=none;top=0;left=0;bottom=0;right=0;" vertex="1" parent="S200XJqEQrXHh1j5I4fp-112">
          <mxGeometry width="30" height="30" as="geometry" />
        </mxCell>
        <mxCell id="S200XJqEQrXHh1j5I4fp-114" value="" style="shape=partialRectangle;overflow=hidden;connectable=0;fillColor=none;top=0;left=0;bottom=0;right=0;align=left;spacingLeft=6;" vertex="1" parent="S200XJqEQrXHh1j5I4fp-112">
          <mxGeometry x="30" width="220" height="30" as="geometry" />
        </mxCell>
        <mxCell id="S200XJqEQrXHh1j5I4fp-128" value="podcast" style="shape=table;startSize=30;container=1;collapsible=1;childLayout=tableLayout;fixedRows=1;rowLines=0;fontStyle=1;align=center;resizeLast=1;" vertex="1" parent="1">
          <mxGeometry x="425" y="80" width="250" height="200" as="geometry" />
        </mxCell>
        <mxCell id="S200XJqEQrXHh1j5I4fp-129" value="" style="shape=partialRectangle;collapsible=0;dropTarget=0;pointerEvents=0;fillColor=none;points=[[0,0.5],[1,0.5]];portConstraint=eastwest;top=0;left=0;right=0;bottom=1;" vertex="1" parent="S200XJqEQrXHh1j5I4fp-128">
          <mxGeometry y="30" width="250" height="30" as="geometry" />
        </mxCell>
        <mxCell id="S200XJqEQrXHh1j5I4fp-130" value="PK" style="shape=partialRectangle;overflow=hidden;connectable=0;fillColor=none;top=0;left=0;bottom=0;right=0;fontStyle=1;" vertex="1" parent="S200XJqEQrXHh1j5I4fp-129">
          <mxGeometry width="30" height="30" as="geometry" />
        </mxCell>
        <mxCell id="S200XJqEQrXHh1j5I4fp-131" value="id" style="shape=partialRectangle;overflow=hidden;connectable=0;fillColor=none;top=0;left=0;bottom=0;right=0;align=left;spacingLeft=6;fontStyle=5;" vertex="1" parent="S200XJqEQrXHh1j5I4fp-129">
          <mxGeometry x="30" width="220" height="30" as="geometry" />
        </mxCell>
        <mxCell id="S200XJqEQrXHh1j5I4fp-174" value="" style="shape=partialRectangle;collapsible=0;dropTarget=0;pointerEvents=0;fillColor=none;points=[[0,0.5],[1,0.5]];portConstraint=eastwest;top=0;left=0;right=0;bottom=1;" vertex="1" parent="S200XJqEQrXHh1j5I4fp-128">
          <mxGeometry y="60" width="250" height="30" as="geometry" />
        </mxCell>
        <mxCell id="S200XJqEQrXHh1j5I4fp-175" value="" style="shape=partialRectangle;overflow=hidden;connectable=0;fillColor=none;top=0;left=0;bottom=0;right=0;fontStyle=1;" vertex="1" parent="S200XJqEQrXHh1j5I4fp-174">
          <mxGeometry width="30" height="30" as="geometry" />
        </mxCell>
        <mxCell id="S200XJqEQrXHh1j5I4fp-176" value="name" style="shape=partialRectangle;overflow=hidden;connectable=0;fillColor=none;top=0;left=0;bottom=0;right=0;align=left;spacingLeft=6;fontStyle=5;" vertex="1" parent="S200XJqEQrXHh1j5I4fp-174">
          <mxGeometry x="30" width="220" height="30" as="geometry" />
        </mxCell>
        <mxCell id="S200XJqEQrXHh1j5I4fp-193" value="" style="shape=partialRectangle;collapsible=0;dropTarget=0;pointerEvents=0;fillColor=none;points=[[0,0.5],[1,0.5]];portConstraint=eastwest;top=0;left=0;right=0;bottom=1;" vertex="1" parent="S200XJqEQrXHh1j5I4fp-128">
          <mxGeometry y="90" width="250" height="30" as="geometry" />
        </mxCell>
        <mxCell id="S200XJqEQrXHh1j5I4fp-194" value="" style="shape=partialRectangle;overflow=hidden;connectable=0;fillColor=none;top=0;left=0;bottom=0;right=0;fontStyle=1;" vertex="1" parent="S200XJqEQrXHh1j5I4fp-193">
          <mxGeometry width="30" height="30" as="geometry" />
        </mxCell>
        <mxCell id="S200XJqEQrXHh1j5I4fp-195" value="date" style="shape=partialRectangle;overflow=hidden;connectable=0;fillColor=none;top=0;left=0;bottom=0;right=0;align=left;spacingLeft=6;fontStyle=5;" vertex="1" parent="S200XJqEQrXHh1j5I4fp-193">
          <mxGeometry x="30" width="220" height="30" as="geometry" />
        </mxCell>
        <mxCell id="S200XJqEQrXHh1j5I4fp-132" value="" style="shape=partialRectangle;collapsible=0;dropTarget=0;pointerEvents=0;fillColor=none;points=[[0,0.5],[1,0.5]];portConstraint=eastwest;top=0;left=0;right=0;bottom=0;" vertex="1" parent="S200XJqEQrXHh1j5I4fp-128">
          <mxGeometry y="120" width="250" height="30" as="geometry" />
        </mxCell>
        <mxCell id="S200XJqEQrXHh1j5I4fp-133" value="" style="shape=partialRectangle;overflow=hidden;connectable=0;fillColor=none;top=0;left=0;bottom=0;right=0;" vertex="1" parent="S200XJqEQrXHh1j5I4fp-132">
          <mxGeometry width="30" height="30" as="geometry" />
        </mxCell>
        <mxCell id="S200XJqEQrXHh1j5I4fp-134" value="" style="shape=partialRectangle;overflow=hidden;connectable=0;top=0;left=0;bottom=0;right=0;align=left;spacingLeft=6;" vertex="1" parent="S200XJqEQrXHh1j5I4fp-132">
          <mxGeometry x="30" width="220" height="30" as="geometry" />
        </mxCell>
        <mxCell id="S200XJqEQrXHh1j5I4fp-135" value="" style="shape=partialRectangle;collapsible=0;dropTarget=0;pointerEvents=0;fillColor=none;points=[[0,0.5],[1,0.5]];portConstraint=eastwest;top=0;left=0;right=0;bottom=0;" vertex="1" parent="S200XJqEQrXHh1j5I4fp-128">
          <mxGeometry y="150" width="250" height="30" as="geometry" />
        </mxCell>
        <mxCell id="S200XJqEQrXHh1j5I4fp-136" value="" style="shape=partialRectangle;overflow=hidden;connectable=0;fillColor=none;top=0;left=0;bottom=0;right=0;" vertex="1" parent="S200XJqEQrXHh1j5I4fp-135">
          <mxGeometry width="30" height="30" as="geometry" />
        </mxCell>
        <mxCell id="S200XJqEQrXHh1j5I4fp-137" value="" style="shape=partialRectangle;overflow=hidden;connectable=0;fillColor=none;top=0;left=0;bottom=0;right=0;align=left;spacingLeft=6;" vertex="1" parent="S200XJqEQrXHh1j5I4fp-135">
          <mxGeometry x="30" width="220" height="30" as="geometry" />
        </mxCell>
        <mxCell id="S200XJqEQrXHh1j5I4fp-138" value="" style="shape=partialRectangle;collapsible=0;dropTarget=0;pointerEvents=0;fillColor=none;points=[[0,0.5],[1,0.5]];portConstraint=eastwest;top=0;left=0;right=0;bottom=0;" vertex="1" parent="S200XJqEQrXHh1j5I4fp-128">
          <mxGeometry y="180" width="250" height="20" as="geometry" />
        </mxCell>
        <mxCell id="S200XJqEQrXHh1j5I4fp-139" value="" style="shape=partialRectangle;overflow=hidden;connectable=0;fillColor=none;top=0;left=0;bottom=0;right=0;" vertex="1" parent="S200XJqEQrXHh1j5I4fp-138">
          <mxGeometry width="30" height="20" as="geometry" />
        </mxCell>
        <mxCell id="S200XJqEQrXHh1j5I4fp-140" value="" style="shape=partialRectangle;overflow=hidden;connectable=0;fillColor=none;top=0;left=0;bottom=0;right=0;align=left;spacingLeft=6;" vertex="1" parent="S200XJqEQrXHh1j5I4fp-138">
          <mxGeometry x="30" width="220" height="20" as="geometry" />
        </mxCell>
        <mxCell id="S200XJqEQrXHh1j5I4fp-196" style="edgeStyle=orthogonalEdgeStyle;rounded=0;orthogonalLoop=1;jettySize=auto;html=1;exitX=0;exitY=0.5;exitDx=0;exitDy=0;entryX=0;entryY=0.5;entryDx=0;entryDy=0;" edge="1" parent="1" source="S200XJqEQrXHh1j5I4fp-116" target="S200XJqEQrXHh1j5I4fp-151">
          <mxGeometry relative="1" as="geometry" />
        </mxCell>
        <mxCell id="S200XJqEQrXHh1j5I4fp-197" value="podcast_genre" style="shape=table;startSize=30;container=1;collapsible=1;childLayout=tableLayout;fixedRows=1;rowLines=0;fontStyle=1;align=center;resizeLast=1;" vertex="1" parent="1">
          <mxGeometry x="440" y="320" width="250" height="200" as="geometry" />
        </mxCell>
        <mxCell id="S200XJqEQrXHh1j5I4fp-198" value="" style="shape=partialRectangle;collapsible=0;dropTarget=0;pointerEvents=0;fillColor=none;points=[[0,0.5],[1,0.5]];portConstraint=eastwest;top=0;left=0;right=0;bottom=1;" vertex="1" parent="S200XJqEQrXHh1j5I4fp-197">
          <mxGeometry y="30" width="250" height="30" as="geometry" />
        </mxCell>
        <mxCell id="S200XJqEQrXHh1j5I4fp-199" value="PK" style="shape=partialRectangle;overflow=hidden;connectable=0;fillColor=none;top=0;left=0;bottom=0;right=0;fontStyle=1;" vertex="1" parent="S200XJqEQrXHh1j5I4fp-198">
          <mxGeometry width="30" height="30" as="geometry" />
        </mxCell>
        <mxCell id="S200XJqEQrXHh1j5I4fp-200" value="id" style="shape=partialRectangle;overflow=hidden;connectable=0;fillColor=none;top=0;left=0;bottom=0;right=0;align=left;spacingLeft=6;fontStyle=5;" vertex="1" parent="S200XJqEQrXHh1j5I4fp-198">
          <mxGeometry x="30" width="220" height="30" as="geometry" />
        </mxCell>
        <mxCell id="S200XJqEQrXHh1j5I4fp-201" value="" style="shape=partialRectangle;collapsible=0;dropTarget=0;pointerEvents=0;fillColor=none;points=[[0,0.5],[1,0.5]];portConstraint=eastwest;top=0;left=0;right=0;bottom=1;" vertex="1" parent="S200XJqEQrXHh1j5I4fp-197">
          <mxGeometry y="60" width="250" height="30" as="geometry" />
        </mxCell>
        <mxCell id="S200XJqEQrXHh1j5I4fp-202" value="" style="shape=partialRectangle;overflow=hidden;connectable=0;fillColor=none;top=0;left=0;bottom=0;right=0;fontStyle=1;" vertex="1" parent="S200XJqEQrXHh1j5I4fp-201">
          <mxGeometry width="30" height="30" as="geometry" />
        </mxCell>
        <mxCell id="S200XJqEQrXHh1j5I4fp-203" value="podcast_id" style="shape=partialRectangle;overflow=hidden;connectable=0;fillColor=none;top=0;left=0;bottom=0;right=0;align=left;spacingLeft=6;fontStyle=5;" vertex="1" parent="S200XJqEQrXHh1j5I4fp-201">
          <mxGeometry x="30" width="220" height="30" as="geometry" />
        </mxCell>
        <mxCell id="S200XJqEQrXHh1j5I4fp-204" value="" style="shape=partialRectangle;collapsible=0;dropTarget=0;pointerEvents=0;fillColor=none;points=[[0,0.5],[1,0.5]];portConstraint=eastwest;top=0;left=0;right=0;bottom=1;" vertex="1" parent="S200XJqEQrXHh1j5I4fp-197">
          <mxGeometry y="90" width="250" height="30" as="geometry" />
        </mxCell>
        <mxCell id="S200XJqEQrXHh1j5I4fp-205" value="" style="shape=partialRectangle;overflow=hidden;connectable=0;fillColor=none;top=0;left=0;bottom=0;right=0;fontStyle=1;" vertex="1" parent="S200XJqEQrXHh1j5I4fp-204">
          <mxGeometry width="30" height="30" as="geometry" />
        </mxCell>
        <mxCell id="S200XJqEQrXHh1j5I4fp-206" value="genre_id" style="shape=partialRectangle;overflow=hidden;connectable=0;fillColor=none;top=0;left=0;bottom=0;right=0;align=left;spacingLeft=6;fontStyle=5;" vertex="1" parent="S200XJqEQrXHh1j5I4fp-204">
          <mxGeometry x="30" width="220" height="30" as="geometry" />
        </mxCell>
        <mxCell id="S200XJqEQrXHh1j5I4fp-207" value="" style="shape=partialRectangle;collapsible=0;dropTarget=0;pointerEvents=0;fillColor=none;points=[[0,0.5],[1,0.5]];portConstraint=eastwest;top=0;left=0;right=0;bottom=0;" vertex="1" parent="S200XJqEQrXHh1j5I4fp-197">
          <mxGeometry y="120" width="250" height="30" as="geometry" />
        </mxCell>
        <mxCell id="S200XJqEQrXHh1j5I4fp-208" value="" style="shape=partialRectangle;overflow=hidden;connectable=0;fillColor=none;top=0;left=0;bottom=0;right=0;" vertex="1" parent="S200XJqEQrXHh1j5I4fp-207">
          <mxGeometry width="30" height="30" as="geometry" />
        </mxCell>
        <mxCell id="S200XJqEQrXHh1j5I4fp-209" value="" style="shape=partialRectangle;overflow=hidden;connectable=0;top=0;left=0;bottom=0;right=0;align=left;spacingLeft=6;" vertex="1" parent="S200XJqEQrXHh1j5I4fp-207">
          <mxGeometry x="30" width="220" height="30" as="geometry" />
        </mxCell>
        <mxCell id="S200XJqEQrXHh1j5I4fp-210" value="" style="shape=partialRectangle;collapsible=0;dropTarget=0;pointerEvents=0;fillColor=none;points=[[0,0.5],[1,0.5]];portConstraint=eastwest;top=0;left=0;right=0;bottom=0;" vertex="1" parent="S200XJqEQrXHh1j5I4fp-197">
          <mxGeometry y="150" width="250" height="30" as="geometry" />
        </mxCell>
        <mxCell id="S200XJqEQrXHh1j5I4fp-211" value="" style="shape=partialRectangle;overflow=hidden;connectable=0;fillColor=none;top=0;left=0;bottom=0;right=0;" vertex="1" parent="S200XJqEQrXHh1j5I4fp-210">
          <mxGeometry width="30" height="30" as="geometry" />
        </mxCell>
        <mxCell id="S200XJqEQrXHh1j5I4fp-212" value="" style="shape=partialRectangle;overflow=hidden;connectable=0;fillColor=none;top=0;left=0;bottom=0;right=0;align=left;spacingLeft=6;" vertex="1" parent="S200XJqEQrXHh1j5I4fp-210">
          <mxGeometry x="30" width="220" height="30" as="geometry" />
        </mxCell>
        <mxCell id="S200XJqEQrXHh1j5I4fp-213" value="" style="shape=partialRectangle;collapsible=0;dropTarget=0;pointerEvents=0;fillColor=none;points=[[0,0.5],[1,0.5]];portConstraint=eastwest;top=0;left=0;right=0;bottom=0;" vertex="1" parent="S200XJqEQrXHh1j5I4fp-197">
          <mxGeometry y="180" width="250" height="20" as="geometry" />
        </mxCell>
        <mxCell id="S200XJqEQrXHh1j5I4fp-214" value="" style="shape=partialRectangle;overflow=hidden;connectable=0;fillColor=none;top=0;left=0;bottom=0;right=0;" vertex="1" parent="S200XJqEQrXHh1j5I4fp-213">
          <mxGeometry width="30" height="20" as="geometry" />
        </mxCell>
        <mxCell id="S200XJqEQrXHh1j5I4fp-215" value="" style="shape=partialRectangle;overflow=hidden;connectable=0;fillColor=none;top=0;left=0;bottom=0;right=0;align=left;spacingLeft=6;" vertex="1" parent="S200XJqEQrXHh1j5I4fp-213">
          <mxGeometry x="30" width="220" height="20" as="geometry" />
        </mxCell>
        <mxCell id="S200XJqEQrXHh1j5I4fp-216" style="edgeStyle=orthogonalEdgeStyle;rounded=0;orthogonalLoop=1;jettySize=auto;html=1;exitX=0;exitY=0.5;exitDx=0;exitDy=0;entryX=0;entryY=0.5;entryDx=0;entryDy=0;" edge="1" parent="1" source="S200XJqEQrXHh1j5I4fp-129" target="S200XJqEQrXHh1j5I4fp-201">
          <mxGeometry relative="1" as="geometry" />
        </mxCell>
        <mxCell id="S200XJqEQrXHh1j5I4fp-250" style="edgeStyle=orthogonalEdgeStyle;rounded=0;orthogonalLoop=1;jettySize=auto;html=1;exitX=0;exitY=0.5;exitDx=0;exitDy=0;entryX=0;entryY=0.5;entryDx=0;entryDy=0;" edge="1" parent="1" source="S200XJqEQrXHh1j5I4fp-129" target="S200XJqEQrXHh1j5I4fp-221">
          <mxGeometry relative="1" as="geometry" />
        </mxCell>
        <mxCell id="S200XJqEQrXHh1j5I4fp-251" style="edgeStyle=orthogonalEdgeStyle;rounded=0;orthogonalLoop=1;jettySize=auto;html=1;exitX=0;exitY=0.5;exitDx=0;exitDy=0;entryX=0;entryY=0.5;entryDx=0;entryDy=0;" edge="1" parent="1" source="S200XJqEQrXHh1j5I4fp-129" target="S200XJqEQrXHh1j5I4fp-244">
          <mxGeometry relative="1" as="geometry" />
        </mxCell>
        <mxCell id="S200XJqEQrXHh1j5I4fp-252" style="edgeStyle=orthogonalEdgeStyle;rounded=0;orthogonalLoop=1;jettySize=auto;html=1;exitX=0;exitY=0.5;exitDx=0;exitDy=0;entryX=0;entryY=0.5;entryDx=0;entryDy=0;" edge="1" parent="1" source="S200XJqEQrXHh1j5I4fp-129" target="S200XJqEQrXHh1j5I4fp-234">
          <mxGeometry relative="1" as="geometry" />
        </mxCell>
        <mxCell id="S200XJqEQrXHh1j5I4fp-253" value="genre" style="shape=table;startSize=30;container=1;collapsible=1;childLayout=tableLayout;fixedRows=1;rowLines=0;fontStyle=1;align=center;resizeLast=1;" vertex="1" parent="1">
          <mxGeometry x="730" y="260" width="250" height="140" as="geometry" />
        </mxCell>
        <mxCell id="S200XJqEQrXHh1j5I4fp-254" value="" style="shape=partialRectangle;collapsible=0;dropTarget=0;pointerEvents=0;fillColor=none;points=[[0,0.5],[1,0.5]];portConstraint=eastwest;top=0;left=0;right=0;bottom=1;" vertex="1" parent="S200XJqEQrXHh1j5I4fp-253">
          <mxGeometry y="30" width="250" height="30" as="geometry" />
        </mxCell>
        <mxCell id="S200XJqEQrXHh1j5I4fp-255" value="PK" style="shape=partialRectangle;overflow=hidden;connectable=0;fillColor=none;top=0;left=0;bottom=0;right=0;fontStyle=1;" vertex="1" parent="S200XJqEQrXHh1j5I4fp-254">
          <mxGeometry width="30" height="30" as="geometry" />
        </mxCell>
        <mxCell id="S200XJqEQrXHh1j5I4fp-256" value="id" style="shape=partialRectangle;overflow=hidden;connectable=0;fillColor=none;top=0;left=0;bottom=0;right=0;align=left;spacingLeft=6;fontStyle=5;" vertex="1" parent="S200XJqEQrXHh1j5I4fp-254">
          <mxGeometry x="30" width="220" height="30" as="geometry" />
        </mxCell>
        <mxCell id="S200XJqEQrXHh1j5I4fp-257" value="" style="shape=partialRectangle;collapsible=0;dropTarget=0;pointerEvents=0;fillColor=none;points=[[0,0.5],[1,0.5]];portConstraint=eastwest;top=0;left=0;right=0;bottom=0;" vertex="1" parent="S200XJqEQrXHh1j5I4fp-253">
          <mxGeometry y="60" width="250" height="30" as="geometry" />
        </mxCell>
        <mxCell id="S200XJqEQrXHh1j5I4fp-258" value="" style="shape=partialRectangle;overflow=hidden;connectable=0;fillColor=none;top=0;left=0;bottom=0;right=0;" vertex="1" parent="S200XJqEQrXHh1j5I4fp-257">
          <mxGeometry width="30" height="30" as="geometry" />
        </mxCell>
        <mxCell id="S200XJqEQrXHh1j5I4fp-259" value="name" style="shape=partialRectangle;overflow=hidden;connectable=0;fillColor=none;top=0;left=0;bottom=0;right=0;align=left;spacingLeft=6;" vertex="1" parent="S200XJqEQrXHh1j5I4fp-257">
          <mxGeometry x="30" width="220" height="30" as="geometry" />
        </mxCell>
        <mxCell id="S200XJqEQrXHh1j5I4fp-260" value="" style="shape=partialRectangle;collapsible=0;dropTarget=0;pointerEvents=0;fillColor=none;points=[[0,0.5],[1,0.5]];portConstraint=eastwest;top=0;left=0;right=0;bottom=0;" vertex="1" parent="S200XJqEQrXHh1j5I4fp-253">
          <mxGeometry y="90" width="250" height="30" as="geometry" />
        </mxCell>
        <mxCell id="S200XJqEQrXHh1j5I4fp-261" value="" style="shape=partialRectangle;overflow=hidden;connectable=0;fillColor=none;top=0;left=0;bottom=0;right=0;" vertex="1" parent="S200XJqEQrXHh1j5I4fp-260">
          <mxGeometry width="30" height="30" as="geometry" />
        </mxCell>
        <mxCell id="S200XJqEQrXHh1j5I4fp-262" value="" style="shape=partialRectangle;overflow=hidden;connectable=0;fillColor=none;top=0;left=0;bottom=0;right=0;align=left;spacingLeft=6;" vertex="1" parent="S200XJqEQrXHh1j5I4fp-260">
          <mxGeometry x="30" width="220" height="30" as="geometry" />
        </mxCell>
        <mxCell id="S200XJqEQrXHh1j5I4fp-263" value="" style="shape=partialRectangle;collapsible=0;dropTarget=0;pointerEvents=0;fillColor=none;points=[[0,0.5],[1,0.5]];portConstraint=eastwest;top=0;left=0;right=0;bottom=0;" vertex="1" parent="S200XJqEQrXHh1j5I4fp-253">
          <mxGeometry y="120" width="250" height="20" as="geometry" />
        </mxCell>
        <mxCell id="S200XJqEQrXHh1j5I4fp-264" value="" style="shape=partialRectangle;overflow=hidden;connectable=0;fillColor=none;top=0;left=0;bottom=0;right=0;" vertex="1" parent="S200XJqEQrXHh1j5I4fp-263">
          <mxGeometry width="30" height="20" as="geometry" />
        </mxCell>
        <mxCell id="S200XJqEQrXHh1j5I4fp-265" value="" style="shape=partialRectangle;overflow=hidden;connectable=0;fillColor=none;top=0;left=0;bottom=0;right=0;align=left;spacingLeft=6;" vertex="1" parent="S200XJqEQrXHh1j5I4fp-263">
          <mxGeometry x="30" width="220" height="20" as="geometry" />
        </mxCell>
        <mxCell id="S200XJqEQrXHh1j5I4fp-314" style="edgeStyle=orthogonalEdgeStyle;rounded=0;orthogonalLoop=1;jettySize=auto;html=1;exitX=0;exitY=0.5;exitDx=0;exitDy=0;" edge="1" parent="1" source="S200XJqEQrXHh1j5I4fp-254" target="S200XJqEQrXHh1j5I4fp-204">
          <mxGeometry relative="1" as="geometry" />
        </mxCell>
        <mxCell id="S200XJqEQrXHh1j5I4fp-315" style="edgeStyle=orthogonalEdgeStyle;rounded=0;orthogonalLoop=1;jettySize=auto;html=1;exitX=0;exitY=0.5;exitDx=0;exitDy=0;" edge="1" parent="1" source="S200XJqEQrXHh1j5I4fp-267" target="S200XJqEQrXHh1j5I4fp-224">
          <mxGeometry relative="1" as="geometry" />
        </mxCell>
        <mxCell id="S200XJqEQrXHh1j5I4fp-316" style="edgeStyle=orthogonalEdgeStyle;rounded=0;orthogonalLoop=1;jettySize=auto;html=1;exitX=0;exitY=0.5;exitDx=0;exitDy=0;" edge="1" parent="1" source="S200XJqEQrXHh1j5I4fp-280" target="S200XJqEQrXHh1j5I4fp-247">
          <mxGeometry relative="1" as="geometry" />
        </mxCell>
        <mxCell id="S200XJqEQrXHh1j5I4fp-317" style="edgeStyle=orthogonalEdgeStyle;rounded=0;orthogonalLoop=1;jettySize=auto;html=1;exitX=0;exitY=0.5;exitDx=0;exitDy=0;entryX=-0.004;entryY=0.733;entryDx=0;entryDy=0;entryPerimeter=0;" edge="1" parent="1" source="S200XJqEQrXHh1j5I4fp-280" target="S200XJqEQrXHh1j5I4fp-299">
          <mxGeometry relative="1" as="geometry" />
        </mxCell>
        <mxCell id="S200XJqEQrXHh1j5I4fp-328" style="edgeStyle=orthogonalEdgeStyle;rounded=0;orthogonalLoop=1;jettySize=auto;html=1;exitX=0;exitY=0.5;exitDx=0;exitDy=0;entryX=0;entryY=0.5;entryDx=0;entryDy=0;" edge="1" parent="1" source="S200XJqEQrXHh1j5I4fp-319" target="S200XJqEQrXHh1j5I4fp-237">
          <mxGeometry relative="1" as="geometry" />
        </mxCell>
        <mxCell id="S200XJqEQrXHh1j5I4fp-329" style="edgeStyle=orthogonalEdgeStyle;rounded=0;orthogonalLoop=1;jettySize=auto;html=1;exitX=0;exitY=0.5;exitDx=0;exitDy=0;entryX=0;entryY=0.5;entryDx=0;entryDy=0;" edge="1" parent="1" source="S200XJqEQrXHh1j5I4fp-319" target="S200XJqEQrXHh1j5I4fp-296">
          <mxGeometry relative="1" as="geometry" />
        </mxCell>
        <mxCell id="S200XJqEQrXHh1j5I4fp-330" value="podcast_host" style="shape=table;startSize=30;container=1;collapsible=1;childLayout=tableLayout;fixedRows=1;rowLines=0;fontStyle=1;align=center;resizeLast=1;" vertex="1" parent="1">
          <mxGeometry x="470" y="560" width="180" height="130" as="geometry" />
        </mxCell>
        <mxCell id="S200XJqEQrXHh1j5I4fp-331" value="" style="shape=partialRectangle;collapsible=0;dropTarget=0;pointerEvents=0;fillColor=none;top=0;left=0;bottom=1;right=0;points=[[0,0.5],[1,0.5]];portConstraint=eastwest;" vertex="1" parent="S200XJqEQrXHh1j5I4fp-330">
          <mxGeometry y="30" width="180" height="30" as="geometry" />
        </mxCell>
        <mxCell id="S200XJqEQrXHh1j5I4fp-332" value="PK" style="shape=partialRectangle;connectable=0;fillColor=none;top=0;left=0;bottom=0;right=0;fontStyle=1;overflow=hidden;" vertex="1" parent="S200XJqEQrXHh1j5I4fp-331">
          <mxGeometry width="30" height="30" as="geometry" />
        </mxCell>
        <mxCell id="S200XJqEQrXHh1j5I4fp-333" value="id" style="shape=partialRectangle;connectable=0;fillColor=none;top=0;left=0;bottom=0;right=0;align=left;spacingLeft=6;fontStyle=5;overflow=hidden;" vertex="1" parent="S200XJqEQrXHh1j5I4fp-331">
          <mxGeometry x="30" width="150" height="30" as="geometry" />
        </mxCell>
        <mxCell id="S200XJqEQrXHh1j5I4fp-334" value="" style="shape=partialRectangle;collapsible=0;dropTarget=0;pointerEvents=0;fillColor=none;top=0;left=0;bottom=0;right=0;points=[[0,0.5],[1,0.5]];portConstraint=eastwest;" vertex="1" parent="S200XJqEQrXHh1j5I4fp-330">
          <mxGeometry y="60" width="180" height="30" as="geometry" />
        </mxCell>
        <mxCell id="S200XJqEQrXHh1j5I4fp-335" value="" style="shape=partialRectangle;connectable=0;fillColor=none;top=0;left=0;bottom=0;right=0;editable=1;overflow=hidden;" vertex="1" parent="S200XJqEQrXHh1j5I4fp-334">
          <mxGeometry width="30" height="30" as="geometry" />
        </mxCell>
        <mxCell id="S200XJqEQrXHh1j5I4fp-336" value="podcast_id" style="shape=partialRectangle;connectable=0;fillColor=none;top=0;left=0;bottom=0;right=0;align=left;spacingLeft=6;overflow=hidden;" vertex="1" parent="S200XJqEQrXHh1j5I4fp-334">
          <mxGeometry x="30" width="150" height="30" as="geometry" />
        </mxCell>
        <mxCell id="S200XJqEQrXHh1j5I4fp-337" value="" style="shape=partialRectangle;collapsible=0;dropTarget=0;pointerEvents=0;fillColor=none;top=0;left=0;bottom=0;right=0;points=[[0,0.5],[1,0.5]];portConstraint=eastwest;" vertex="1" parent="S200XJqEQrXHh1j5I4fp-330">
          <mxGeometry y="90" width="180" height="30" as="geometry" />
        </mxCell>
        <mxCell id="S200XJqEQrXHh1j5I4fp-338" value="" style="shape=partialRectangle;connectable=0;fillColor=none;top=0;left=0;bottom=0;right=0;editable=1;overflow=hidden;" vertex="1" parent="S200XJqEQrXHh1j5I4fp-337">
          <mxGeometry width="30" height="30" as="geometry" />
        </mxCell>
        <mxCell id="S200XJqEQrXHh1j5I4fp-339" value="host_id" style="shape=partialRectangle;connectable=0;fillColor=none;top=0;left=0;bottom=0;right=0;align=left;spacingLeft=6;overflow=hidden;" vertex="1" parent="S200XJqEQrXHh1j5I4fp-337">
          <mxGeometry x="30" width="150" height="30" as="geometry" />
        </mxCell>
        <mxCell id="S200XJqEQrXHh1j5I4fp-341" value="host" style="shape=table;startSize=30;container=1;collapsible=1;childLayout=tableLayout;fixedRows=1;rowLines=0;fontStyle=1;align=center;resizeLast=1;" vertex="1" parent="1">
          <mxGeometry x="740" y="470" width="250" height="200" as="geometry" />
        </mxCell>
        <mxCell id="S200XJqEQrXHh1j5I4fp-342" value="" style="shape=partialRectangle;collapsible=0;dropTarget=0;pointerEvents=0;fillColor=none;points=[[0,0.5],[1,0.5]];portConstraint=eastwest;top=0;left=0;right=0;bottom=1;" vertex="1" parent="S200XJqEQrXHh1j5I4fp-341">
          <mxGeometry y="30" width="250" height="30" as="geometry" />
        </mxCell>
        <mxCell id="S200XJqEQrXHh1j5I4fp-343" value="PK" style="shape=partialRectangle;overflow=hidden;connectable=0;fillColor=none;top=0;left=0;bottom=0;right=0;fontStyle=1;" vertex="1" parent="S200XJqEQrXHh1j5I4fp-342">
          <mxGeometry width="30" height="30" as="geometry" />
        </mxCell>
        <mxCell id="S200XJqEQrXHh1j5I4fp-344" value="id" style="shape=partialRectangle;overflow=hidden;connectable=0;fillColor=none;top=0;left=0;bottom=0;right=0;align=left;spacingLeft=6;fontStyle=5;" vertex="1" parent="S200XJqEQrXHh1j5I4fp-342">
          <mxGeometry x="30" width="220" height="30" as="geometry" />
        </mxCell>
        <mxCell id="S200XJqEQrXHh1j5I4fp-345" value="" style="shape=partialRectangle;collapsible=0;dropTarget=0;pointerEvents=0;fillColor=none;points=[[0,0.5],[1,0.5]];portConstraint=eastwest;top=0;left=0;right=0;bottom=0;" vertex="1" parent="S200XJqEQrXHh1j5I4fp-341">
          <mxGeometry y="60" width="250" height="30" as="geometry" />
        </mxCell>
        <mxCell id="S200XJqEQrXHh1j5I4fp-346" value="" style="shape=partialRectangle;overflow=hidden;connectable=0;fillColor=none;top=0;left=0;bottom=0;right=0;" vertex="1" parent="S200XJqEQrXHh1j5I4fp-345">
          <mxGeometry width="30" height="30" as="geometry" />
        </mxCell>
        <mxCell id="S200XJqEQrXHh1j5I4fp-347" value="name" style="shape=partialRectangle;overflow=hidden;connectable=0;fillColor=none;top=0;left=0;bottom=0;right=0;align=left;spacingLeft=6;" vertex="1" parent="S200XJqEQrXHh1j5I4fp-345">
          <mxGeometry x="30" width="220" height="30" as="geometry" />
        </mxCell>
        <mxCell id="S200XJqEQrXHh1j5I4fp-348" value="" style="shape=partialRectangle;collapsible=0;dropTarget=0;pointerEvents=0;fillColor=none;points=[[0,0.5],[1,0.5]];portConstraint=eastwest;top=0;left=0;right=0;bottom=0;" vertex="1" parent="S200XJqEQrXHh1j5I4fp-341">
          <mxGeometry y="90" width="250" height="30" as="geometry" />
        </mxCell>
        <mxCell id="S200XJqEQrXHh1j5I4fp-349" value="" style="shape=partialRectangle;overflow=hidden;connectable=0;fillColor=none;top=0;left=0;bottom=0;right=0;" vertex="1" parent="S200XJqEQrXHh1j5I4fp-348">
          <mxGeometry width="30" height="30" as="geometry" />
        </mxCell>
        <mxCell id="S200XJqEQrXHh1j5I4fp-350" value="email" style="shape=partialRectangle;overflow=hidden;connectable=0;fillColor=none;top=0;left=0;bottom=0;right=0;align=left;spacingLeft=6;" vertex="1" parent="S200XJqEQrXHh1j5I4fp-348">
          <mxGeometry x="30" width="220" height="30" as="geometry" />
        </mxCell>
        <mxCell id="S200XJqEQrXHh1j5I4fp-351" value="" style="shape=partialRectangle;collapsible=0;dropTarget=0;pointerEvents=0;fillColor=none;points=[[0,0.5],[1,0.5]];portConstraint=eastwest;top=0;left=0;right=0;bottom=0;" vertex="1" parent="S200XJqEQrXHh1j5I4fp-341">
          <mxGeometry y="120" width="250" height="30" as="geometry" />
        </mxCell>
        <mxCell id="S200XJqEQrXHh1j5I4fp-352" value="" style="shape=partialRectangle;overflow=hidden;connectable=0;fillColor=none;top=0;left=0;bottom=0;right=0;" vertex="1" parent="S200XJqEQrXHh1j5I4fp-351">
          <mxGeometry width="30" height="30" as="geometry" />
        </mxCell>
        <mxCell id="S200XJqEQrXHh1j5I4fp-353" value="social_links" style="shape=partialRectangle;overflow=hidden;connectable=0;fillColor=none;top=0;left=0;bottom=0;right=0;align=left;spacingLeft=6;" vertex="1" parent="S200XJqEQrXHh1j5I4fp-351">
          <mxGeometry x="30" width="220" height="30" as="geometry" />
        </mxCell>
        <mxCell id="S200XJqEQrXHh1j5I4fp-354" value="" style="shape=partialRectangle;collapsible=0;dropTarget=0;pointerEvents=0;fillColor=none;points=[[0,0.5],[1,0.5]];portConstraint=eastwest;top=0;left=0;right=0;bottom=0;" vertex="1" parent="S200XJqEQrXHh1j5I4fp-341">
          <mxGeometry y="150" width="250" height="30" as="geometry" />
        </mxCell>
        <mxCell id="S200XJqEQrXHh1j5I4fp-355" value="" style="shape=partialRectangle;overflow=hidden;connectable=0;fillColor=none;top=0;left=0;bottom=0;right=0;" vertex="1" parent="S200XJqEQrXHh1j5I4fp-354">
          <mxGeometry width="30" height="30" as="geometry" />
        </mxCell>
        <mxCell id="S200XJqEQrXHh1j5I4fp-356" value="" style="shape=partialRectangle;overflow=hidden;connectable=0;fillColor=none;top=0;left=0;bottom=0;right=0;align=left;spacingLeft=6;" vertex="1" parent="S200XJqEQrXHh1j5I4fp-354">
          <mxGeometry x="30" width="220" height="30" as="geometry" />
        </mxCell>
        <mxCell id="S200XJqEQrXHh1j5I4fp-357" value="" style="shape=partialRectangle;collapsible=0;dropTarget=0;pointerEvents=0;fillColor=none;points=[[0,0.5],[1,0.5]];portConstraint=eastwest;top=0;left=0;right=0;bottom=0;" vertex="1" parent="S200XJqEQrXHh1j5I4fp-341">
          <mxGeometry y="180" width="250" height="20" as="geometry" />
        </mxCell>
        <mxCell id="S200XJqEQrXHh1j5I4fp-358" value="" style="shape=partialRectangle;overflow=hidden;connectable=0;fillColor=none;top=0;left=0;bottom=0;right=0;" vertex="1" parent="S200XJqEQrXHh1j5I4fp-357">
          <mxGeometry width="30" height="20" as="geometry" />
        </mxCell>
        <mxCell id="S200XJqEQrXHh1j5I4fp-359" value="" style="shape=partialRectangle;overflow=hidden;connectable=0;fillColor=none;top=0;left=0;bottom=0;right=0;align=left;spacingLeft=6;" vertex="1" parent="S200XJqEQrXHh1j5I4fp-357">
          <mxGeometry x="30" width="220" height="20" as="geometry" />
        </mxCell>
        <mxCell id="S200XJqEQrXHh1j5I4fp-318" value="keyword" style="shape=table;startSize=30;container=1;collapsible=1;childLayout=tableLayout;fixedRows=1;rowLines=0;fontStyle=1;align=center;resizeLast=1;" vertex="1" parent="1">
          <mxGeometry x="470" y="1260" width="180" height="130" as="geometry" />
        </mxCell>
        <mxCell id="S200XJqEQrXHh1j5I4fp-319" value="" style="shape=partialRectangle;collapsible=0;dropTarget=0;pointerEvents=0;fillColor=none;top=0;left=0;bottom=1;right=0;points=[[0,0.5],[1,0.5]];portConstraint=eastwest;" vertex="1" parent="S200XJqEQrXHh1j5I4fp-318">
          <mxGeometry y="30" width="180" height="30" as="geometry" />
        </mxCell>
        <mxCell id="S200XJqEQrXHh1j5I4fp-320" value="PK" style="shape=partialRectangle;connectable=0;fillColor=none;top=0;left=0;bottom=0;right=0;fontStyle=1;overflow=hidden;" vertex="1" parent="S200XJqEQrXHh1j5I4fp-319">
          <mxGeometry width="30" height="30" as="geometry" />
        </mxCell>
        <mxCell id="S200XJqEQrXHh1j5I4fp-321" value="id" style="shape=partialRectangle;connectable=0;fillColor=none;top=0;left=0;bottom=0;right=0;align=left;spacingLeft=6;fontStyle=5;overflow=hidden;" vertex="1" parent="S200XJqEQrXHh1j5I4fp-319">
          <mxGeometry x="30" width="150" height="30" as="geometry" />
        </mxCell>
        <mxCell id="S200XJqEQrXHh1j5I4fp-322" value="" style="shape=partialRectangle;collapsible=0;dropTarget=0;pointerEvents=0;fillColor=none;top=0;left=0;bottom=0;right=0;points=[[0,0.5],[1,0.5]];portConstraint=eastwest;" vertex="1" parent="S200XJqEQrXHh1j5I4fp-318">
          <mxGeometry y="60" width="180" height="30" as="geometry" />
        </mxCell>
        <mxCell id="S200XJqEQrXHh1j5I4fp-323" value="" style="shape=partialRectangle;connectable=0;fillColor=none;top=0;left=0;bottom=0;right=0;editable=1;overflow=hidden;" vertex="1" parent="S200XJqEQrXHh1j5I4fp-322">
          <mxGeometry width="30" height="30" as="geometry" />
        </mxCell>
        <mxCell id="S200XJqEQrXHh1j5I4fp-324" value="word" style="shape=partialRectangle;connectable=0;fillColor=none;top=0;left=0;bottom=0;right=0;align=left;spacingLeft=6;overflow=hidden;" vertex="1" parent="S200XJqEQrXHh1j5I4fp-322">
          <mxGeometry x="30" width="150" height="30" as="geometry" />
        </mxCell>
        <mxCell id="S200XJqEQrXHh1j5I4fp-325" value="" style="shape=partialRectangle;collapsible=0;dropTarget=0;pointerEvents=0;fillColor=none;top=0;left=0;bottom=0;right=0;points=[[0,0.5],[1,0.5]];portConstraint=eastwest;" vertex="1" parent="S200XJqEQrXHh1j5I4fp-318">
          <mxGeometry y="90" width="180" height="30" as="geometry" />
        </mxCell>
        <mxCell id="S200XJqEQrXHh1j5I4fp-326" value="" style="shape=partialRectangle;connectable=0;fillColor=none;top=0;left=0;bottom=0;right=0;editable=1;overflow=hidden;" vertex="1" parent="S200XJqEQrXHh1j5I4fp-325">
          <mxGeometry width="30" height="30" as="geometry" />
        </mxCell>
        <mxCell id="S200XJqEQrXHh1j5I4fp-327" value="" style="shape=partialRectangle;connectable=0;fillColor=none;top=0;left=0;bottom=0;right=0;align=left;spacingLeft=6;overflow=hidden;" vertex="1" parent="S200XJqEQrXHh1j5I4fp-325">
          <mxGeometry x="30" width="150" height="30" as="geometry" />
        </mxCell>
        <mxCell id="S200XJqEQrXHh1j5I4fp-230" value="podcast_keyword" style="shape=table;startSize=30;container=1;collapsible=1;childLayout=tableLayout;fixedRows=1;rowLines=0;fontStyle=1;align=center;resizeLast=1;" vertex="1" parent="1">
          <mxGeometry x="475" y="1090" width="180" height="130" as="geometry" />
        </mxCell>
        <mxCell id="S200XJqEQrXHh1j5I4fp-231" value="" style="shape=partialRectangle;collapsible=0;dropTarget=0;pointerEvents=0;fillColor=none;top=0;left=0;bottom=1;right=0;points=[[0,0.5],[1,0.5]];portConstraint=eastwest;" vertex="1" parent="S200XJqEQrXHh1j5I4fp-230">
          <mxGeometry y="30" width="180" height="30" as="geometry" />
        </mxCell>
        <mxCell id="S200XJqEQrXHh1j5I4fp-232" value="PK" style="shape=partialRectangle;connectable=0;fillColor=none;top=0;left=0;bottom=0;right=0;fontStyle=1;overflow=hidden;" vertex="1" parent="S200XJqEQrXHh1j5I4fp-231">
          <mxGeometry width="30" height="30" as="geometry" />
        </mxCell>
        <mxCell id="S200XJqEQrXHh1j5I4fp-233" value="id" style="shape=partialRectangle;connectable=0;fillColor=none;top=0;left=0;bottom=0;right=0;align=left;spacingLeft=6;fontStyle=5;overflow=hidden;" vertex="1" parent="S200XJqEQrXHh1j5I4fp-231">
          <mxGeometry x="30" width="150" height="30" as="geometry" />
        </mxCell>
        <mxCell id="S200XJqEQrXHh1j5I4fp-234" value="" style="shape=partialRectangle;collapsible=0;dropTarget=0;pointerEvents=0;fillColor=none;top=0;left=0;bottom=0;right=0;points=[[0,0.5],[1,0.5]];portConstraint=eastwest;" vertex="1" parent="S200XJqEQrXHh1j5I4fp-230">
          <mxGeometry y="60" width="180" height="30" as="geometry" />
        </mxCell>
        <mxCell id="S200XJqEQrXHh1j5I4fp-235" value="" style="shape=partialRectangle;connectable=0;fillColor=none;top=0;left=0;bottom=0;right=0;editable=1;overflow=hidden;" vertex="1" parent="S200XJqEQrXHh1j5I4fp-234">
          <mxGeometry width="30" height="30" as="geometry" />
        </mxCell>
        <mxCell id="S200XJqEQrXHh1j5I4fp-236" value="podcast_id" style="shape=partialRectangle;connectable=0;fillColor=none;top=0;left=0;bottom=0;right=0;align=left;spacingLeft=6;overflow=hidden;" vertex="1" parent="S200XJqEQrXHh1j5I4fp-234">
          <mxGeometry x="30" width="150" height="30" as="geometry" />
        </mxCell>
        <mxCell id="S200XJqEQrXHh1j5I4fp-237" value="" style="shape=partialRectangle;collapsible=0;dropTarget=0;pointerEvents=0;fillColor=none;top=0;left=0;bottom=0;right=0;points=[[0,0.5],[1,0.5]];portConstraint=eastwest;" vertex="1" parent="S200XJqEQrXHh1j5I4fp-230">
          <mxGeometry y="90" width="180" height="30" as="geometry" />
        </mxCell>
        <mxCell id="S200XJqEQrXHh1j5I4fp-238" value="" style="shape=partialRectangle;connectable=0;fillColor=none;top=0;left=0;bottom=0;right=0;editable=1;overflow=hidden;" vertex="1" parent="S200XJqEQrXHh1j5I4fp-237">
          <mxGeometry width="30" height="30" as="geometry" />
        </mxCell>
        <mxCell id="S200XJqEQrXHh1j5I4fp-239" value="keyword_id" style="shape=partialRectangle;connectable=0;fillColor=none;top=0;left=0;bottom=0;right=0;align=left;spacingLeft=6;overflow=hidden;" vertex="1" parent="S200XJqEQrXHh1j5I4fp-237">
          <mxGeometry x="30" width="150" height="30" as="geometry" />
        </mxCell>
        <mxCell id="S200XJqEQrXHh1j5I4fp-240" value="podcast_album" style="shape=table;startSize=30;container=1;collapsible=1;childLayout=tableLayout;fixedRows=1;rowLines=0;fontStyle=1;align=center;resizeLast=1;" vertex="1" parent="1">
          <mxGeometry x="470" y="890" width="180" height="130" as="geometry" />
        </mxCell>
        <mxCell id="S200XJqEQrXHh1j5I4fp-241" value="" style="shape=partialRectangle;collapsible=0;dropTarget=0;pointerEvents=0;fillColor=none;top=0;left=0;bottom=1;right=0;points=[[0,0.5],[1,0.5]];portConstraint=eastwest;" vertex="1" parent="S200XJqEQrXHh1j5I4fp-240">
          <mxGeometry y="30" width="180" height="30" as="geometry" />
        </mxCell>
        <mxCell id="S200XJqEQrXHh1j5I4fp-242" value="PK" style="shape=partialRectangle;connectable=0;fillColor=none;top=0;left=0;bottom=0;right=0;fontStyle=1;overflow=hidden;" vertex="1" parent="S200XJqEQrXHh1j5I4fp-241">
          <mxGeometry width="30" height="30" as="geometry" />
        </mxCell>
        <mxCell id="S200XJqEQrXHh1j5I4fp-243" value="id" style="shape=partialRectangle;connectable=0;fillColor=none;top=0;left=0;bottom=0;right=0;align=left;spacingLeft=6;fontStyle=5;overflow=hidden;" vertex="1" parent="S200XJqEQrXHh1j5I4fp-241">
          <mxGeometry x="30" width="150" height="30" as="geometry" />
        </mxCell>
        <mxCell id="S200XJqEQrXHh1j5I4fp-244" value="" style="shape=partialRectangle;collapsible=0;dropTarget=0;pointerEvents=0;fillColor=none;top=0;left=0;bottom=0;right=0;points=[[0,0.5],[1,0.5]];portConstraint=eastwest;" vertex="1" parent="S200XJqEQrXHh1j5I4fp-240">
          <mxGeometry y="60" width="180" height="30" as="geometry" />
        </mxCell>
        <mxCell id="S200XJqEQrXHh1j5I4fp-245" value="" style="shape=partialRectangle;connectable=0;fillColor=none;top=0;left=0;bottom=0;right=0;editable=1;overflow=hidden;" vertex="1" parent="S200XJqEQrXHh1j5I4fp-244">
          <mxGeometry width="30" height="30" as="geometry" />
        </mxCell>
        <mxCell id="S200XJqEQrXHh1j5I4fp-246" value="podcast_id" style="shape=partialRectangle;connectable=0;fillColor=none;top=0;left=0;bottom=0;right=0;align=left;spacingLeft=6;overflow=hidden;" vertex="1" parent="S200XJqEQrXHh1j5I4fp-244">
          <mxGeometry x="30" width="150" height="30" as="geometry" />
        </mxCell>
        <mxCell id="S200XJqEQrXHh1j5I4fp-247" value="" style="shape=partialRectangle;collapsible=0;dropTarget=0;pointerEvents=0;fillColor=none;top=0;left=0;bottom=0;right=0;points=[[0,0.5],[1,0.5]];portConstraint=eastwest;" vertex="1" parent="S200XJqEQrXHh1j5I4fp-240">
          <mxGeometry y="90" width="180" height="30" as="geometry" />
        </mxCell>
        <mxCell id="S200XJqEQrXHh1j5I4fp-248" value="" style="shape=partialRectangle;connectable=0;fillColor=none;top=0;left=0;bottom=0;right=0;editable=1;overflow=hidden;" vertex="1" parent="S200XJqEQrXHh1j5I4fp-247">
          <mxGeometry width="30" height="30" as="geometry" />
        </mxCell>
        <mxCell id="S200XJqEQrXHh1j5I4fp-249" value="album_id" style="shape=partialRectangle;connectable=0;fillColor=none;top=0;left=0;bottom=0;right=0;align=left;spacingLeft=6;overflow=hidden;" vertex="1" parent="S200XJqEQrXHh1j5I4fp-247">
          <mxGeometry x="30" width="150" height="30" as="geometry" />
        </mxCell>
        <mxCell id="S200XJqEQrXHh1j5I4fp-217" value="podcast_guest" style="shape=table;startSize=30;container=1;collapsible=1;childLayout=tableLayout;fixedRows=1;rowLines=0;fontStyle=1;align=center;resizeLast=1;" vertex="1" parent="1">
          <mxGeometry x="470" y="710" width="180" height="130" as="geometry" />
        </mxCell>
        <mxCell id="S200XJqEQrXHh1j5I4fp-218" value="" style="shape=partialRectangle;collapsible=0;dropTarget=0;pointerEvents=0;fillColor=none;top=0;left=0;bottom=1;right=0;points=[[0,0.5],[1,0.5]];portConstraint=eastwest;" vertex="1" parent="S200XJqEQrXHh1j5I4fp-217">
          <mxGeometry y="30" width="180" height="30" as="geometry" />
        </mxCell>
        <mxCell id="S200XJqEQrXHh1j5I4fp-219" value="PK" style="shape=partialRectangle;connectable=0;fillColor=none;top=0;left=0;bottom=0;right=0;fontStyle=1;overflow=hidden;" vertex="1" parent="S200XJqEQrXHh1j5I4fp-218">
          <mxGeometry width="30" height="30" as="geometry" />
        </mxCell>
        <mxCell id="S200XJqEQrXHh1j5I4fp-220" value="id" style="shape=partialRectangle;connectable=0;fillColor=none;top=0;left=0;bottom=0;right=0;align=left;spacingLeft=6;fontStyle=5;overflow=hidden;" vertex="1" parent="S200XJqEQrXHh1j5I4fp-218">
          <mxGeometry x="30" width="150" height="30" as="geometry" />
        </mxCell>
        <mxCell id="S200XJqEQrXHh1j5I4fp-221" value="" style="shape=partialRectangle;collapsible=0;dropTarget=0;pointerEvents=0;fillColor=none;top=0;left=0;bottom=0;right=0;points=[[0,0.5],[1,0.5]];portConstraint=eastwest;" vertex="1" parent="S200XJqEQrXHh1j5I4fp-217">
          <mxGeometry y="60" width="180" height="30" as="geometry" />
        </mxCell>
        <mxCell id="S200XJqEQrXHh1j5I4fp-222" value="" style="shape=partialRectangle;connectable=0;fillColor=none;top=0;left=0;bottom=0;right=0;editable=1;overflow=hidden;" vertex="1" parent="S200XJqEQrXHh1j5I4fp-221">
          <mxGeometry width="30" height="30" as="geometry" />
        </mxCell>
        <mxCell id="S200XJqEQrXHh1j5I4fp-223" value="podcast_id" style="shape=partialRectangle;connectable=0;fillColor=none;top=0;left=0;bottom=0;right=0;align=left;spacingLeft=6;overflow=hidden;" vertex="1" parent="S200XJqEQrXHh1j5I4fp-221">
          <mxGeometry x="30" width="150" height="30" as="geometry" />
        </mxCell>
        <mxCell id="S200XJqEQrXHh1j5I4fp-224" value="" style="shape=partialRectangle;collapsible=0;dropTarget=0;pointerEvents=0;fillColor=none;top=0;left=0;bottom=0;right=0;points=[[0,0.5],[1,0.5]];portConstraint=eastwest;" vertex="1" parent="S200XJqEQrXHh1j5I4fp-217">
          <mxGeometry y="90" width="180" height="30" as="geometry" />
        </mxCell>
        <mxCell id="S200XJqEQrXHh1j5I4fp-225" value="" style="shape=partialRectangle;connectable=0;fillColor=none;top=0;left=0;bottom=0;right=0;editable=1;overflow=hidden;" vertex="1" parent="S200XJqEQrXHh1j5I4fp-224">
          <mxGeometry width="30" height="30" as="geometry" />
        </mxCell>
        <mxCell id="S200XJqEQrXHh1j5I4fp-226" value="guest_id" style="shape=partialRectangle;connectable=0;fillColor=none;top=0;left=0;bottom=0;right=0;align=left;spacingLeft=6;overflow=hidden;" vertex="1" parent="S200XJqEQrXHh1j5I4fp-224">
          <mxGeometry x="30" width="150" height="30" as="geometry" />
        </mxCell>
        <mxCell id="S200XJqEQrXHh1j5I4fp-340" style="edgeStyle=orthogonalEdgeStyle;rounded=0;orthogonalLoop=1;jettySize=auto;html=1;exitX=0;exitY=0.5;exitDx=0;exitDy=0;entryX=0;entryY=0.5;entryDx=0;entryDy=0;" edge="1" parent="1" source="S200XJqEQrXHh1j5I4fp-129" target="S200XJqEQrXHh1j5I4fp-334">
          <mxGeometry relative="1" as="geometry" />
        </mxCell>
        <mxCell id="S200XJqEQrXHh1j5I4fp-115" value="playlist" style="shape=table;startSize=30;container=1;collapsible=1;childLayout=tableLayout;fixedRows=1;rowLines=0;fontStyle=1;align=center;resizeLast=1;" vertex="1" parent="1">
          <mxGeometry x="100" y="660" width="250" height="140" as="geometry" />
        </mxCell>
        <mxCell id="S200XJqEQrXHh1j5I4fp-116" value="" style="shape=partialRectangle;collapsible=0;dropTarget=0;pointerEvents=0;fillColor=none;points=[[0,0.5],[1,0.5]];portConstraint=eastwest;top=0;left=0;right=0;bottom=1;" vertex="1" parent="S200XJqEQrXHh1j5I4fp-115">
          <mxGeometry y="30" width="250" height="30" as="geometry" />
        </mxCell>
        <mxCell id="S200XJqEQrXHh1j5I4fp-117" value="PK" style="shape=partialRectangle;overflow=hidden;connectable=0;fillColor=none;top=0;left=0;bottom=0;right=0;fontStyle=1;" vertex="1" parent="S200XJqEQrXHh1j5I4fp-116">
          <mxGeometry width="30" height="30" as="geometry" />
        </mxCell>
        <mxCell id="S200XJqEQrXHh1j5I4fp-118" value="id" style="shape=partialRectangle;overflow=hidden;connectable=0;fillColor=none;top=0;left=0;bottom=0;right=0;align=left;spacingLeft=6;fontStyle=5;" vertex="1" parent="S200XJqEQrXHh1j5I4fp-116">
          <mxGeometry x="30" width="220" height="30" as="geometry" />
        </mxCell>
        <mxCell id="S200XJqEQrXHh1j5I4fp-119" value="" style="shape=partialRectangle;collapsible=0;dropTarget=0;pointerEvents=0;fillColor=none;points=[[0,0.5],[1,0.5]];portConstraint=eastwest;top=0;left=0;right=0;bottom=0;" vertex="1" parent="S200XJqEQrXHh1j5I4fp-115">
          <mxGeometry y="60" width="250" height="30" as="geometry" />
        </mxCell>
        <mxCell id="S200XJqEQrXHh1j5I4fp-120" value="" style="shape=partialRectangle;overflow=hidden;connectable=0;fillColor=none;top=0;left=0;bottom=0;right=0;" vertex="1" parent="S200XJqEQrXHh1j5I4fp-119">
          <mxGeometry width="30" height="30" as="geometry" />
        </mxCell>
        <mxCell id="S200XJqEQrXHh1j5I4fp-121" value="podcast_id" style="shape=partialRectangle;overflow=hidden;connectable=0;fillColor=none;top=0;left=0;bottom=0;right=0;align=left;spacingLeft=6;" vertex="1" parent="S200XJqEQrXHh1j5I4fp-119">
          <mxGeometry x="30" width="220" height="30" as="geometry" />
        </mxCell>
        <mxCell id="S200XJqEQrXHh1j5I4fp-122" value="" style="shape=partialRectangle;collapsible=0;dropTarget=0;pointerEvents=0;fillColor=none;points=[[0,0.5],[1,0.5]];portConstraint=eastwest;top=0;left=0;right=0;bottom=0;" vertex="1" parent="S200XJqEQrXHh1j5I4fp-115">
          <mxGeometry y="90" width="250" height="30" as="geometry" />
        </mxCell>
        <mxCell id="S200XJqEQrXHh1j5I4fp-123" value="" style="shape=partialRectangle;overflow=hidden;connectable=0;fillColor=none;top=0;left=0;bottom=0;right=0;" vertex="1" parent="S200XJqEQrXHh1j5I4fp-122">
          <mxGeometry width="30" height="30" as="geometry" />
        </mxCell>
        <mxCell id="S200XJqEQrXHh1j5I4fp-124" value="" style="shape=partialRectangle;overflow=hidden;connectable=0;fillColor=none;top=0;left=0;bottom=0;right=0;align=left;spacingLeft=6;" vertex="1" parent="S200XJqEQrXHh1j5I4fp-122">
          <mxGeometry x="30" width="220" height="30" as="geometry" />
        </mxCell>
        <mxCell id="S200XJqEQrXHh1j5I4fp-125" value="" style="shape=partialRectangle;collapsible=0;dropTarget=0;pointerEvents=0;fillColor=none;points=[[0,0.5],[1,0.5]];portConstraint=eastwest;top=0;left=0;right=0;bottom=0;" vertex="1" parent="S200XJqEQrXHh1j5I4fp-115">
          <mxGeometry y="120" width="250" height="20" as="geometry" />
        </mxCell>
        <mxCell id="S200XJqEQrXHh1j5I4fp-126" value="" style="shape=partialRectangle;overflow=hidden;connectable=0;fillColor=none;top=0;left=0;bottom=0;right=0;" vertex="1" parent="S200XJqEQrXHh1j5I4fp-125">
          <mxGeometry width="30" height="20" as="geometry" />
        </mxCell>
        <mxCell id="S200XJqEQrXHh1j5I4fp-127" value="" style="shape=partialRectangle;overflow=hidden;connectable=0;fillColor=none;top=0;left=0;bottom=0;right=0;align=left;spacingLeft=6;" vertex="1" parent="S200XJqEQrXHh1j5I4fp-125">
          <mxGeometry x="30" width="220" height="20" as="geometry" />
        </mxCell>
        <mxCell id="S200XJqEQrXHh1j5I4fp-292" value="album_keyword" style="shape=table;startSize=30;container=1;collapsible=1;childLayout=tableLayout;fixedRows=1;rowLines=0;fontStyle=1;align=center;resizeLast=1;" vertex="1" parent="1">
          <mxGeometry x="740" y="1360" width="250" height="140" as="geometry" />
        </mxCell>
        <mxCell id="S200XJqEQrXHh1j5I4fp-293" value="" style="shape=partialRectangle;collapsible=0;dropTarget=0;pointerEvents=0;fillColor=none;points=[[0,0.5],[1,0.5]];portConstraint=eastwest;top=0;left=0;right=0;bottom=1;" vertex="1" parent="S200XJqEQrXHh1j5I4fp-292">
          <mxGeometry y="30" width="250" height="30" as="geometry" />
        </mxCell>
        <mxCell id="S200XJqEQrXHh1j5I4fp-294" value="PK" style="shape=partialRectangle;overflow=hidden;connectable=0;fillColor=none;top=0;left=0;bottom=0;right=0;fontStyle=1;" vertex="1" parent="S200XJqEQrXHh1j5I4fp-293">
          <mxGeometry width="30" height="30" as="geometry" />
        </mxCell>
        <mxCell id="S200XJqEQrXHh1j5I4fp-295" value="id" style="shape=partialRectangle;overflow=hidden;connectable=0;fillColor=none;top=0;left=0;bottom=0;right=0;align=left;spacingLeft=6;fontStyle=5;" vertex="1" parent="S200XJqEQrXHh1j5I4fp-293">
          <mxGeometry x="30" width="220" height="30" as="geometry" />
        </mxCell>
        <mxCell id="S200XJqEQrXHh1j5I4fp-296" value="" style="shape=partialRectangle;collapsible=0;dropTarget=0;pointerEvents=0;fillColor=none;points=[[0,0.5],[1,0.5]];portConstraint=eastwest;top=0;left=0;right=0;bottom=0;" vertex="1" parent="S200XJqEQrXHh1j5I4fp-292">
          <mxGeometry y="60" width="250" height="30" as="geometry" />
        </mxCell>
        <mxCell id="S200XJqEQrXHh1j5I4fp-297" value="" style="shape=partialRectangle;overflow=hidden;connectable=0;fillColor=none;top=0;left=0;bottom=0;right=0;" vertex="1" parent="S200XJqEQrXHh1j5I4fp-296">
          <mxGeometry width="30" height="30" as="geometry" />
        </mxCell>
        <mxCell id="S200XJqEQrXHh1j5I4fp-298" value="keyword_id" style="shape=partialRectangle;overflow=hidden;connectable=0;fillColor=none;top=0;left=0;bottom=0;right=0;align=left;spacingLeft=6;" vertex="1" parent="S200XJqEQrXHh1j5I4fp-296">
          <mxGeometry x="30" width="220" height="30" as="geometry" />
        </mxCell>
        <mxCell id="S200XJqEQrXHh1j5I4fp-299" value="" style="shape=partialRectangle;collapsible=0;dropTarget=0;pointerEvents=0;fillColor=none;points=[[0,0.5],[1,0.5]];portConstraint=eastwest;top=0;left=0;right=0;bottom=0;" vertex="1" parent="S200XJqEQrXHh1j5I4fp-292">
          <mxGeometry y="90" width="250" height="30" as="geometry" />
        </mxCell>
        <mxCell id="S200XJqEQrXHh1j5I4fp-300" value="" style="shape=partialRectangle;overflow=hidden;connectable=0;fillColor=none;top=0;left=0;bottom=0;right=0;" vertex="1" parent="S200XJqEQrXHh1j5I4fp-299">
          <mxGeometry width="30" height="30" as="geometry" />
        </mxCell>
        <mxCell id="S200XJqEQrXHh1j5I4fp-301" value="album_id" style="shape=partialRectangle;overflow=hidden;connectable=0;fillColor=none;top=0;left=0;bottom=0;right=0;align=left;spacingLeft=6;" vertex="1" parent="S200XJqEQrXHh1j5I4fp-299">
          <mxGeometry x="30" width="220" height="30" as="geometry" />
        </mxCell>
        <mxCell id="S200XJqEQrXHh1j5I4fp-302" value="" style="shape=partialRectangle;collapsible=0;dropTarget=0;pointerEvents=0;fillColor=none;points=[[0,0.5],[1,0.5]];portConstraint=eastwest;top=0;left=0;right=0;bottom=0;" vertex="1" parent="S200XJqEQrXHh1j5I4fp-292">
          <mxGeometry y="120" width="250" height="20" as="geometry" />
        </mxCell>
        <mxCell id="S200XJqEQrXHh1j5I4fp-303" value="" style="shape=partialRectangle;overflow=hidden;connectable=0;fillColor=none;top=0;left=0;bottom=0;right=0;" vertex="1" parent="S200XJqEQrXHh1j5I4fp-302">
          <mxGeometry width="30" height="20" as="geometry" />
        </mxCell>
        <mxCell id="S200XJqEQrXHh1j5I4fp-304" value="" style="shape=partialRectangle;overflow=hidden;connectable=0;fillColor=none;top=0;left=0;bottom=0;right=0;align=left;spacingLeft=6;" vertex="1" parent="S200XJqEQrXHh1j5I4fp-302">
          <mxGeometry x="30" width="220" height="20" as="geometry" />
        </mxCell>
        <mxCell id="S200XJqEQrXHh1j5I4fp-279" value="album" style="shape=table;startSize=30;container=1;collapsible=1;childLayout=tableLayout;fixedRows=1;rowLines=0;fontStyle=1;align=center;resizeLast=1;" vertex="1" parent="1">
          <mxGeometry x="740" y="1130" width="250" height="170" as="geometry" />
        </mxCell>
        <mxCell id="S200XJqEQrXHh1j5I4fp-280" value="" style="shape=partialRectangle;collapsible=0;dropTarget=0;pointerEvents=0;fillColor=none;points=[[0,0.5],[1,0.5]];portConstraint=eastwest;top=0;left=0;right=0;bottom=1;" vertex="1" parent="S200XJqEQrXHh1j5I4fp-279">
          <mxGeometry y="30" width="250" height="30" as="geometry" />
        </mxCell>
        <mxCell id="S200XJqEQrXHh1j5I4fp-281" value="PK" style="shape=partialRectangle;overflow=hidden;connectable=0;fillColor=none;top=0;left=0;bottom=0;right=0;fontStyle=1;" vertex="1" parent="S200XJqEQrXHh1j5I4fp-280">
          <mxGeometry width="30" height="30" as="geometry" />
        </mxCell>
        <mxCell id="S200XJqEQrXHh1j5I4fp-282" value="id" style="shape=partialRectangle;overflow=hidden;connectable=0;fillColor=none;top=0;left=0;bottom=0;right=0;align=left;spacingLeft=6;fontStyle=5;" vertex="1" parent="S200XJqEQrXHh1j5I4fp-280">
          <mxGeometry x="30" width="220" height="30" as="geometry" />
        </mxCell>
        <mxCell id="S200XJqEQrXHh1j5I4fp-283" value="" style="shape=partialRectangle;collapsible=0;dropTarget=0;pointerEvents=0;fillColor=none;points=[[0,0.5],[1,0.5]];portConstraint=eastwest;top=0;left=0;right=0;bottom=0;" vertex="1" parent="S200XJqEQrXHh1j5I4fp-279">
          <mxGeometry y="60" width="250" height="30" as="geometry" />
        </mxCell>
        <mxCell id="S200XJqEQrXHh1j5I4fp-284" value="" style="shape=partialRectangle;overflow=hidden;connectable=0;fillColor=none;top=0;left=0;bottom=0;right=0;" vertex="1" parent="S200XJqEQrXHh1j5I4fp-283">
          <mxGeometry width="30" height="30" as="geometry" />
        </mxCell>
        <mxCell id="S200XJqEQrXHh1j5I4fp-285" value="name" style="shape=partialRectangle;overflow=hidden;connectable=0;fillColor=none;top=0;left=0;bottom=0;right=0;align=left;spacingLeft=6;" vertex="1" parent="S200XJqEQrXHh1j5I4fp-283">
          <mxGeometry x="30" width="220" height="30" as="geometry" />
        </mxCell>
        <mxCell id="S200XJqEQrXHh1j5I4fp-305" value="" style="shape=partialRectangle;collapsible=0;dropTarget=0;pointerEvents=0;fillColor=none;points=[[0,0.5],[1,0.5]];portConstraint=eastwest;top=0;left=0;right=0;bottom=0;" vertex="1" parent="S200XJqEQrXHh1j5I4fp-279">
          <mxGeometry y="90" width="250" height="30" as="geometry" />
        </mxCell>
        <mxCell id="S200XJqEQrXHh1j5I4fp-306" value="" style="shape=partialRectangle;overflow=hidden;connectable=0;fillColor=none;top=0;left=0;bottom=0;right=0;" vertex="1" parent="S200XJqEQrXHh1j5I4fp-305">
          <mxGeometry width="30" height="30" as="geometry" />
        </mxCell>
        <mxCell id="S200XJqEQrXHh1j5I4fp-307" value="date" style="shape=partialRectangle;overflow=hidden;connectable=0;fillColor=none;top=0;left=0;bottom=0;right=0;align=left;spacingLeft=6;" vertex="1" parent="S200XJqEQrXHh1j5I4fp-305">
          <mxGeometry x="30" width="220" height="30" as="geometry" />
        </mxCell>
        <mxCell id="S200XJqEQrXHh1j5I4fp-286" value="" style="shape=partialRectangle;collapsible=0;dropTarget=0;pointerEvents=0;fillColor=none;points=[[0,0.5],[1,0.5]];portConstraint=eastwest;top=0;left=0;right=0;bottom=0;" vertex="1" parent="S200XJqEQrXHh1j5I4fp-279">
          <mxGeometry y="120" width="250" height="30" as="geometry" />
        </mxCell>
        <mxCell id="S200XJqEQrXHh1j5I4fp-287" value="" style="shape=partialRectangle;overflow=hidden;connectable=0;fillColor=none;top=0;left=0;bottom=0;right=0;" vertex="1" parent="S200XJqEQrXHh1j5I4fp-286">
          <mxGeometry width="30" height="30" as="geometry" />
        </mxCell>
        <mxCell id="S200XJqEQrXHh1j5I4fp-288" value="" style="shape=partialRectangle;overflow=hidden;connectable=0;fillColor=none;top=0;left=0;bottom=0;right=0;align=left;spacingLeft=6;" vertex="1" parent="S200XJqEQrXHh1j5I4fp-286">
          <mxGeometry x="30" width="220" height="30" as="geometry" />
        </mxCell>
        <mxCell id="S200XJqEQrXHh1j5I4fp-289" value="" style="shape=partialRectangle;collapsible=0;dropTarget=0;pointerEvents=0;fillColor=none;points=[[0,0.5],[1,0.5]];portConstraint=eastwest;top=0;left=0;right=0;bottom=0;" vertex="1" parent="S200XJqEQrXHh1j5I4fp-279">
          <mxGeometry y="150" width="250" height="20" as="geometry" />
        </mxCell>
        <mxCell id="S200XJqEQrXHh1j5I4fp-290" value="" style="shape=partialRectangle;overflow=hidden;connectable=0;fillColor=none;top=0;left=0;bottom=0;right=0;" vertex="1" parent="S200XJqEQrXHh1j5I4fp-289">
          <mxGeometry width="30" height="20" as="geometry" />
        </mxCell>
        <mxCell id="S200XJqEQrXHh1j5I4fp-291" value="" style="shape=partialRectangle;overflow=hidden;connectable=0;fillColor=none;top=0;left=0;bottom=0;right=0;align=left;spacingLeft=6;" vertex="1" parent="S200XJqEQrXHh1j5I4fp-289">
          <mxGeometry x="30" width="220" height="20" as="geometry" />
        </mxCell>
        <mxCell id="S200XJqEQrXHh1j5I4fp-266" value="guest" style="shape=table;startSize=30;container=1;collapsible=1;childLayout=tableLayout;fixedRows=1;rowLines=0;fontStyle=1;align=center;resizeLast=1;" vertex="1" parent="1">
          <mxGeometry x="730" y="830" width="250" height="200" as="geometry" />
        </mxCell>
        <mxCell id="S200XJqEQrXHh1j5I4fp-267" value="" style="shape=partialRectangle;collapsible=0;dropTarget=0;pointerEvents=0;fillColor=none;points=[[0,0.5],[1,0.5]];portConstraint=eastwest;top=0;left=0;right=0;bottom=1;" vertex="1" parent="S200XJqEQrXHh1j5I4fp-266">
          <mxGeometry y="30" width="250" height="30" as="geometry" />
        </mxCell>
        <mxCell id="S200XJqEQrXHh1j5I4fp-268" value="PK" style="shape=partialRectangle;overflow=hidden;connectable=0;fillColor=none;top=0;left=0;bottom=0;right=0;fontStyle=1;" vertex="1" parent="S200XJqEQrXHh1j5I4fp-267">
          <mxGeometry width="30" height="30" as="geometry" />
        </mxCell>
        <mxCell id="S200XJqEQrXHh1j5I4fp-269" value="id" style="shape=partialRectangle;overflow=hidden;connectable=0;fillColor=none;top=0;left=0;bottom=0;right=0;align=left;spacingLeft=6;fontStyle=5;" vertex="1" parent="S200XJqEQrXHh1j5I4fp-267">
          <mxGeometry x="30" width="220" height="30" as="geometry" />
        </mxCell>
        <mxCell id="S200XJqEQrXHh1j5I4fp-270" value="" style="shape=partialRectangle;collapsible=0;dropTarget=0;pointerEvents=0;fillColor=none;points=[[0,0.5],[1,0.5]];portConstraint=eastwest;top=0;left=0;right=0;bottom=0;" vertex="1" parent="S200XJqEQrXHh1j5I4fp-266">
          <mxGeometry y="60" width="250" height="30" as="geometry" />
        </mxCell>
        <mxCell id="S200XJqEQrXHh1j5I4fp-271" value="" style="shape=partialRectangle;overflow=hidden;connectable=0;fillColor=none;top=0;left=0;bottom=0;right=0;" vertex="1" parent="S200XJqEQrXHh1j5I4fp-270">
          <mxGeometry width="30" height="30" as="geometry" />
        </mxCell>
        <mxCell id="S200XJqEQrXHh1j5I4fp-272" value="name" style="shape=partialRectangle;overflow=hidden;connectable=0;fillColor=none;top=0;left=0;bottom=0;right=0;align=left;spacingLeft=6;" vertex="1" parent="S200XJqEQrXHh1j5I4fp-270">
          <mxGeometry x="30" width="220" height="30" as="geometry" />
        </mxCell>
        <mxCell id="S200XJqEQrXHh1j5I4fp-308" value="" style="shape=partialRectangle;collapsible=0;dropTarget=0;pointerEvents=0;fillColor=none;points=[[0,0.5],[1,0.5]];portConstraint=eastwest;top=0;left=0;right=0;bottom=0;" vertex="1" parent="S200XJqEQrXHh1j5I4fp-266">
          <mxGeometry y="90" width="250" height="30" as="geometry" />
        </mxCell>
        <mxCell id="S200XJqEQrXHh1j5I4fp-309" value="" style="shape=partialRectangle;overflow=hidden;connectable=0;fillColor=none;top=0;left=0;bottom=0;right=0;" vertex="1" parent="S200XJqEQrXHh1j5I4fp-308">
          <mxGeometry width="30" height="30" as="geometry" />
        </mxCell>
        <mxCell id="S200XJqEQrXHh1j5I4fp-310" value="email" style="shape=partialRectangle;overflow=hidden;connectable=0;fillColor=none;top=0;left=0;bottom=0;right=0;align=left;spacingLeft=6;" vertex="1" parent="S200XJqEQrXHh1j5I4fp-308">
          <mxGeometry x="30" width="220" height="30" as="geometry" />
        </mxCell>
        <mxCell id="S200XJqEQrXHh1j5I4fp-311" value="" style="shape=partialRectangle;collapsible=0;dropTarget=0;pointerEvents=0;fillColor=none;points=[[0,0.5],[1,0.5]];portConstraint=eastwest;top=0;left=0;right=0;bottom=0;" vertex="1" parent="S200XJqEQrXHh1j5I4fp-266">
          <mxGeometry y="120" width="250" height="30" as="geometry" />
        </mxCell>
        <mxCell id="S200XJqEQrXHh1j5I4fp-312" value="" style="shape=partialRectangle;overflow=hidden;connectable=0;fillColor=none;top=0;left=0;bottom=0;right=0;" vertex="1" parent="S200XJqEQrXHh1j5I4fp-311">
          <mxGeometry width="30" height="30" as="geometry" />
        </mxCell>
        <mxCell id="S200XJqEQrXHh1j5I4fp-313" value="social_links" style="shape=partialRectangle;overflow=hidden;connectable=0;fillColor=none;top=0;left=0;bottom=0;right=0;align=left;spacingLeft=6;" vertex="1" parent="S200XJqEQrXHh1j5I4fp-311">
          <mxGeometry x="30" width="220" height="30" as="geometry" />
        </mxCell>
        <mxCell id="S200XJqEQrXHh1j5I4fp-273" value="" style="shape=partialRectangle;collapsible=0;dropTarget=0;pointerEvents=0;fillColor=none;points=[[0,0.5],[1,0.5]];portConstraint=eastwest;top=0;left=0;right=0;bottom=0;" vertex="1" parent="S200XJqEQrXHh1j5I4fp-266">
          <mxGeometry y="150" width="250" height="30" as="geometry" />
        </mxCell>
        <mxCell id="S200XJqEQrXHh1j5I4fp-274" value="" style="shape=partialRectangle;overflow=hidden;connectable=0;fillColor=none;top=0;left=0;bottom=0;right=0;" vertex="1" parent="S200XJqEQrXHh1j5I4fp-273">
          <mxGeometry width="30" height="30" as="geometry" />
        </mxCell>
        <mxCell id="S200XJqEQrXHh1j5I4fp-275" value="" style="shape=partialRectangle;overflow=hidden;connectable=0;fillColor=none;top=0;left=0;bottom=0;right=0;align=left;spacingLeft=6;" vertex="1" parent="S200XJqEQrXHh1j5I4fp-273">
          <mxGeometry x="30" width="220" height="30" as="geometry" />
        </mxCell>
        <mxCell id="S200XJqEQrXHh1j5I4fp-276" value="" style="shape=partialRectangle;collapsible=0;dropTarget=0;pointerEvents=0;fillColor=none;points=[[0,0.5],[1,0.5]];portConstraint=eastwest;top=0;left=0;right=0;bottom=0;" vertex="1" parent="S200XJqEQrXHh1j5I4fp-266">
          <mxGeometry y="180" width="250" height="20" as="geometry" />
        </mxCell>
        <mxCell id="S200XJqEQrXHh1j5I4fp-277" value="" style="shape=partialRectangle;overflow=hidden;connectable=0;fillColor=none;top=0;left=0;bottom=0;right=0;" vertex="1" parent="S200XJqEQrXHh1j5I4fp-276">
          <mxGeometry width="30" height="20" as="geometry" />
        </mxCell>
        <mxCell id="S200XJqEQrXHh1j5I4fp-278" value="" style="shape=partialRectangle;overflow=hidden;connectable=0;fillColor=none;top=0;left=0;bottom=0;right=0;align=left;spacingLeft=6;" vertex="1" parent="S200XJqEQrXHh1j5I4fp-276">
          <mxGeometry x="30" width="220" height="20" as="geometry" />
        </mxCell>
        <mxCell id="S200XJqEQrXHh1j5I4fp-360" style="edgeStyle=orthogonalEdgeStyle;rounded=0;orthogonalLoop=1;jettySize=auto;html=1;exitX=0;exitY=0.5;exitDx=0;exitDy=0;entryX=1;entryY=0.5;entryDx=0;entryDy=0;" edge="1" parent="1" source="S200XJqEQrXHh1j5I4fp-342" target="S200XJqEQrXHh1j5I4fp-337">
          <mxGeometry relative="1" as="geometry" />
        </mxCell>
        <mxCell id="S200XJqEQrXHh1j5I4fp-374" value="user_fav_host" style="shape=table;startSize=30;container=1;collapsible=1;childLayout=tableLayout;fixedRows=1;rowLines=0;fontStyle=1;align=center;resizeLast=1;" vertex="1" parent="1">
          <mxGeometry x="90" y="1010" width="250" height="140" as="geometry" />
        </mxCell>
        <mxCell id="S200XJqEQrXHh1j5I4fp-375" value="" style="shape=partialRectangle;collapsible=0;dropTarget=0;pointerEvents=0;fillColor=none;points=[[0,0.5],[1,0.5]];portConstraint=eastwest;top=0;left=0;right=0;bottom=1;" vertex="1" parent="S200XJqEQrXHh1j5I4fp-374">
          <mxGeometry y="30" width="250" height="30" as="geometry" />
        </mxCell>
        <mxCell id="S200XJqEQrXHh1j5I4fp-376" value="PK" style="shape=partialRectangle;overflow=hidden;connectable=0;fillColor=none;top=0;left=0;bottom=0;right=0;fontStyle=1;" vertex="1" parent="S200XJqEQrXHh1j5I4fp-375">
          <mxGeometry width="30" height="30" as="geometry" />
        </mxCell>
        <mxCell id="S200XJqEQrXHh1j5I4fp-377" value="id" style="shape=partialRectangle;overflow=hidden;connectable=0;fillColor=none;top=0;left=0;bottom=0;right=0;align=left;spacingLeft=6;fontStyle=5;" vertex="1" parent="S200XJqEQrXHh1j5I4fp-375">
          <mxGeometry x="30" width="220" height="30" as="geometry" />
        </mxCell>
        <mxCell id="S200XJqEQrXHh1j5I4fp-378" value="" style="shape=partialRectangle;collapsible=0;dropTarget=0;pointerEvents=0;fillColor=none;points=[[0,0.5],[1,0.5]];portConstraint=eastwest;top=0;left=0;right=0;bottom=0;" vertex="1" parent="S200XJqEQrXHh1j5I4fp-374">
          <mxGeometry y="60" width="250" height="30" as="geometry" />
        </mxCell>
        <mxCell id="S200XJqEQrXHh1j5I4fp-379" value="" style="shape=partialRectangle;overflow=hidden;connectable=0;fillColor=none;top=0;left=0;bottom=0;right=0;" vertex="1" parent="S200XJqEQrXHh1j5I4fp-378">
          <mxGeometry width="30" height="30" as="geometry" />
        </mxCell>
        <mxCell id="S200XJqEQrXHh1j5I4fp-380" value="host_id" style="shape=partialRectangle;overflow=hidden;connectable=0;fillColor=none;top=0;left=0;bottom=0;right=0;align=left;spacingLeft=6;" vertex="1" parent="S200XJqEQrXHh1j5I4fp-378">
          <mxGeometry x="30" width="220" height="30" as="geometry" />
        </mxCell>
        <mxCell id="S200XJqEQrXHh1j5I4fp-381" value="" style="shape=partialRectangle;collapsible=0;dropTarget=0;pointerEvents=0;fillColor=none;points=[[0,0.5],[1,0.5]];portConstraint=eastwest;top=0;left=0;right=0;bottom=0;" vertex="1" parent="S200XJqEQrXHh1j5I4fp-374">
          <mxGeometry y="90" width="250" height="30" as="geometry" />
        </mxCell>
        <mxCell id="S200XJqEQrXHh1j5I4fp-382" value="" style="shape=partialRectangle;overflow=hidden;connectable=0;fillColor=none;top=0;left=0;bottom=0;right=0;" vertex="1" parent="S200XJqEQrXHh1j5I4fp-381">
          <mxGeometry width="30" height="30" as="geometry" />
        </mxCell>
        <mxCell id="S200XJqEQrXHh1j5I4fp-383" value="" style="shape=partialRectangle;overflow=hidden;connectable=0;fillColor=none;top=0;left=0;bottom=0;right=0;align=left;spacingLeft=6;" vertex="1" parent="S200XJqEQrXHh1j5I4fp-381">
          <mxGeometry x="30" width="220" height="30" as="geometry" />
        </mxCell>
        <mxCell id="S200XJqEQrXHh1j5I4fp-384" value="" style="shape=partialRectangle;collapsible=0;dropTarget=0;pointerEvents=0;fillColor=none;points=[[0,0.5],[1,0.5]];portConstraint=eastwest;top=0;left=0;right=0;bottom=0;" vertex="1" parent="S200XJqEQrXHh1j5I4fp-374">
          <mxGeometry y="120" width="250" height="20" as="geometry" />
        </mxCell>
        <mxCell id="S200XJqEQrXHh1j5I4fp-385" value="" style="shape=partialRectangle;overflow=hidden;connectable=0;fillColor=none;top=0;left=0;bottom=0;right=0;" vertex="1" parent="S200XJqEQrXHh1j5I4fp-384">
          <mxGeometry width="30" height="20" as="geometry" />
        </mxCell>
        <mxCell id="S200XJqEQrXHh1j5I4fp-386" value="" style="shape=partialRectangle;overflow=hidden;connectable=0;fillColor=none;top=0;left=0;bottom=0;right=0;align=left;spacingLeft=6;" vertex="1" parent="S200XJqEQrXHh1j5I4fp-384">
          <mxGeometry x="30" width="220" height="20" as="geometry" />
        </mxCell>
        <mxCell id="S200XJqEQrXHh1j5I4fp-361" value="user_fav_guest" style="shape=table;startSize=30;container=1;collapsible=1;childLayout=tableLayout;fixedRows=1;rowLines=0;fontStyle=1;align=center;resizeLast=1;" vertex="1" parent="1">
          <mxGeometry x="90" y="830" width="250" height="140" as="geometry" />
        </mxCell>
        <mxCell id="S200XJqEQrXHh1j5I4fp-362" value="" style="shape=partialRectangle;collapsible=0;dropTarget=0;pointerEvents=0;fillColor=none;points=[[0,0.5],[1,0.5]];portConstraint=eastwest;top=0;left=0;right=0;bottom=1;" vertex="1" parent="S200XJqEQrXHh1j5I4fp-361">
          <mxGeometry y="30" width="250" height="30" as="geometry" />
        </mxCell>
        <mxCell id="S200XJqEQrXHh1j5I4fp-363" value="PK" style="shape=partialRectangle;overflow=hidden;connectable=0;fillColor=none;top=0;left=0;bottom=0;right=0;fontStyle=1;" vertex="1" parent="S200XJqEQrXHh1j5I4fp-362">
          <mxGeometry width="30" height="30" as="geometry" />
        </mxCell>
        <mxCell id="S200XJqEQrXHh1j5I4fp-364" value="id" style="shape=partialRectangle;overflow=hidden;connectable=0;fillColor=none;top=0;left=0;bottom=0;right=0;align=left;spacingLeft=6;fontStyle=5;" vertex="1" parent="S200XJqEQrXHh1j5I4fp-362">
          <mxGeometry x="30" width="220" height="30" as="geometry" />
        </mxCell>
        <mxCell id="S200XJqEQrXHh1j5I4fp-365" value="" style="shape=partialRectangle;collapsible=0;dropTarget=0;pointerEvents=0;fillColor=none;points=[[0,0.5],[1,0.5]];portConstraint=eastwest;top=0;left=0;right=0;bottom=0;" vertex="1" parent="S200XJqEQrXHh1j5I4fp-361">
          <mxGeometry y="60" width="250" height="30" as="geometry" />
        </mxCell>
        <mxCell id="S200XJqEQrXHh1j5I4fp-366" value="" style="shape=partialRectangle;overflow=hidden;connectable=0;fillColor=none;top=0;left=0;bottom=0;right=0;" vertex="1" parent="S200XJqEQrXHh1j5I4fp-365">
          <mxGeometry width="30" height="30" as="geometry" />
        </mxCell>
        <mxCell id="S200XJqEQrXHh1j5I4fp-367" value="guest_id" style="shape=partialRectangle;overflow=hidden;connectable=0;fillColor=none;top=0;left=0;bottom=0;right=0;align=left;spacingLeft=6;" vertex="1" parent="S200XJqEQrXHh1j5I4fp-365">
          <mxGeometry x="30" width="220" height="30" as="geometry" />
        </mxCell>
        <mxCell id="S200XJqEQrXHh1j5I4fp-368" value="" style="shape=partialRectangle;collapsible=0;dropTarget=0;pointerEvents=0;fillColor=none;points=[[0,0.5],[1,0.5]];portConstraint=eastwest;top=0;left=0;right=0;bottom=0;" vertex="1" parent="S200XJqEQrXHh1j5I4fp-361">
          <mxGeometry y="90" width="250" height="30" as="geometry" />
        </mxCell>
        <mxCell id="S200XJqEQrXHh1j5I4fp-369" value="" style="shape=partialRectangle;overflow=hidden;connectable=0;fillColor=none;top=0;left=0;bottom=0;right=0;" vertex="1" parent="S200XJqEQrXHh1j5I4fp-368">
          <mxGeometry width="30" height="30" as="geometry" />
        </mxCell>
        <mxCell id="S200XJqEQrXHh1j5I4fp-370" value="" style="shape=partialRectangle;overflow=hidden;connectable=0;fillColor=none;top=0;left=0;bottom=0;right=0;align=left;spacingLeft=6;" vertex="1" parent="S200XJqEQrXHh1j5I4fp-368">
          <mxGeometry x="30" width="220" height="30" as="geometry" />
        </mxCell>
        <mxCell id="S200XJqEQrXHh1j5I4fp-371" value="" style="shape=partialRectangle;collapsible=0;dropTarget=0;pointerEvents=0;fillColor=none;points=[[0,0.5],[1,0.5]];portConstraint=eastwest;top=0;left=0;right=0;bottom=0;" vertex="1" parent="S200XJqEQrXHh1j5I4fp-361">
          <mxGeometry y="120" width="250" height="20" as="geometry" />
        </mxCell>
        <mxCell id="S200XJqEQrXHh1j5I4fp-372" value="" style="shape=partialRectangle;overflow=hidden;connectable=0;fillColor=none;top=0;left=0;bottom=0;right=0;" vertex="1" parent="S200XJqEQrXHh1j5I4fp-371">
          <mxGeometry width="30" height="20" as="geometry" />
        </mxCell>
        <mxCell id="S200XJqEQrXHh1j5I4fp-373" value="" style="shape=partialRectangle;overflow=hidden;connectable=0;fillColor=none;top=0;left=0;bottom=0;right=0;align=left;spacingLeft=6;" vertex="1" parent="S200XJqEQrXHh1j5I4fp-371">
          <mxGeometry x="30" width="220" height="20" as="geometry" />
        </mxCell>
        <mxCell id="S200XJqEQrXHh1j5I4fp-387" value="user_language" style="shape=table;startSize=30;container=1;collapsible=1;childLayout=tableLayout;fixedRows=1;rowLines=0;fontStyle=1;align=center;resizeLast=1;" vertex="1" parent="1">
          <mxGeometry x="90" y="1400" width="250" height="140" as="geometry" />
        </mxCell>
        <mxCell id="S200XJqEQrXHh1j5I4fp-388" value="" style="shape=partialRectangle;collapsible=0;dropTarget=0;pointerEvents=0;fillColor=none;points=[[0,0.5],[1,0.5]];portConstraint=eastwest;top=0;left=0;right=0;bottom=1;" vertex="1" parent="S200XJqEQrXHh1j5I4fp-387">
          <mxGeometry y="30" width="250" height="30" as="geometry" />
        </mxCell>
        <mxCell id="S200XJqEQrXHh1j5I4fp-389" value="PK" style="shape=partialRectangle;overflow=hidden;connectable=0;fillColor=none;top=0;left=0;bottom=0;right=0;fontStyle=1;" vertex="1" parent="S200XJqEQrXHh1j5I4fp-388">
          <mxGeometry width="30" height="30" as="geometry" />
        </mxCell>
        <mxCell id="S200XJqEQrXHh1j5I4fp-390" value="id" style="shape=partialRectangle;overflow=hidden;connectable=0;fillColor=none;top=0;left=0;bottom=0;right=0;align=left;spacingLeft=6;fontStyle=5;" vertex="1" parent="S200XJqEQrXHh1j5I4fp-388">
          <mxGeometry x="30" width="220" height="30" as="geometry" />
        </mxCell>
        <mxCell id="S200XJqEQrXHh1j5I4fp-391" value="" style="shape=partialRectangle;collapsible=0;dropTarget=0;pointerEvents=0;fillColor=none;points=[[0,0.5],[1,0.5]];portConstraint=eastwest;top=0;left=0;right=0;bottom=0;" vertex="1" parent="S200XJqEQrXHh1j5I4fp-387">
          <mxGeometry y="60" width="250" height="30" as="geometry" />
        </mxCell>
        <mxCell id="S200XJqEQrXHh1j5I4fp-392" value="" style="shape=partialRectangle;overflow=hidden;connectable=0;fillColor=none;top=0;left=0;bottom=0;right=0;" vertex="1" parent="S200XJqEQrXHh1j5I4fp-391">
          <mxGeometry width="30" height="30" as="geometry" />
        </mxCell>
        <mxCell id="S200XJqEQrXHh1j5I4fp-393" value="language_id" style="shape=partialRectangle;overflow=hidden;connectable=0;fillColor=none;top=0;left=0;bottom=0;right=0;align=left;spacingLeft=6;" vertex="1" parent="S200XJqEQrXHh1j5I4fp-391">
          <mxGeometry x="30" width="220" height="30" as="geometry" />
        </mxCell>
        <mxCell id="S200XJqEQrXHh1j5I4fp-394" value="" style="shape=partialRectangle;collapsible=0;dropTarget=0;pointerEvents=0;fillColor=none;points=[[0,0.5],[1,0.5]];portConstraint=eastwest;top=0;left=0;right=0;bottom=0;" vertex="1" parent="S200XJqEQrXHh1j5I4fp-387">
          <mxGeometry y="90" width="250" height="30" as="geometry" />
        </mxCell>
        <mxCell id="S200XJqEQrXHh1j5I4fp-395" value="" style="shape=partialRectangle;overflow=hidden;connectable=0;fillColor=none;top=0;left=0;bottom=0;right=0;" vertex="1" parent="S200XJqEQrXHh1j5I4fp-394">
          <mxGeometry width="30" height="30" as="geometry" />
        </mxCell>
        <mxCell id="S200XJqEQrXHh1j5I4fp-396" value="" style="shape=partialRectangle;overflow=hidden;connectable=0;fillColor=none;top=0;left=0;bottom=0;right=0;align=left;spacingLeft=6;" vertex="1" parent="S200XJqEQrXHh1j5I4fp-394">
          <mxGeometry x="30" width="220" height="30" as="geometry" />
        </mxCell>
        <mxCell id="S200XJqEQrXHh1j5I4fp-397" value="" style="shape=partialRectangle;collapsible=0;dropTarget=0;pointerEvents=0;fillColor=none;points=[[0,0.5],[1,0.5]];portConstraint=eastwest;top=0;left=0;right=0;bottom=0;" vertex="1" parent="S200XJqEQrXHh1j5I4fp-387">
          <mxGeometry y="120" width="250" height="20" as="geometry" />
        </mxCell>
        <mxCell id="S200XJqEQrXHh1j5I4fp-398" value="" style="shape=partialRectangle;overflow=hidden;connectable=0;fillColor=none;top=0;left=0;bottom=0;right=0;" vertex="1" parent="S200XJqEQrXHh1j5I4fp-397">
          <mxGeometry width="30" height="20" as="geometry" />
        </mxCell>
        <mxCell id="S200XJqEQrXHh1j5I4fp-399" value="" style="shape=partialRectangle;overflow=hidden;connectable=0;fillColor=none;top=0;left=0;bottom=0;right=0;align=left;spacingLeft=6;" vertex="1" parent="S200XJqEQrXHh1j5I4fp-397">
          <mxGeometry x="30" width="220" height="20" as="geometry" />
        </mxCell>
        <mxCell id="S200XJqEQrXHh1j5I4fp-400" value="user_fav_genre" style="shape=table;startSize=30;container=1;collapsible=1;childLayout=tableLayout;fixedRows=1;rowLines=0;fontStyle=1;align=center;resizeLast=1;" vertex="1" parent="1">
          <mxGeometry x="90" y="1200" width="250" height="140" as="geometry" />
        </mxCell>
        <mxCell id="S200XJqEQrXHh1j5I4fp-401" value="" style="shape=partialRectangle;collapsible=0;dropTarget=0;pointerEvents=0;fillColor=none;points=[[0,0.5],[1,0.5]];portConstraint=eastwest;top=0;left=0;right=0;bottom=1;" vertex="1" parent="S200XJqEQrXHh1j5I4fp-400">
          <mxGeometry y="30" width="250" height="30" as="geometry" />
        </mxCell>
        <mxCell id="S200XJqEQrXHh1j5I4fp-402" value="PK" style="shape=partialRectangle;overflow=hidden;connectable=0;fillColor=none;top=0;left=0;bottom=0;right=0;fontStyle=1;" vertex="1" parent="S200XJqEQrXHh1j5I4fp-401">
          <mxGeometry width="30" height="30" as="geometry" />
        </mxCell>
        <mxCell id="S200XJqEQrXHh1j5I4fp-403" value="id" style="shape=partialRectangle;overflow=hidden;connectable=0;fillColor=none;top=0;left=0;bottom=0;right=0;align=left;spacingLeft=6;fontStyle=5;" vertex="1" parent="S200XJqEQrXHh1j5I4fp-401">
          <mxGeometry x="30" width="220" height="30" as="geometry" />
        </mxCell>
        <mxCell id="S200XJqEQrXHh1j5I4fp-404" value="" style="shape=partialRectangle;collapsible=0;dropTarget=0;pointerEvents=0;fillColor=none;points=[[0,0.5],[1,0.5]];portConstraint=eastwest;top=0;left=0;right=0;bottom=0;" vertex="1" parent="S200XJqEQrXHh1j5I4fp-400">
          <mxGeometry y="60" width="250" height="30" as="geometry" />
        </mxCell>
        <mxCell id="S200XJqEQrXHh1j5I4fp-405" value="" style="shape=partialRectangle;overflow=hidden;connectable=0;fillColor=none;top=0;left=0;bottom=0;right=0;" vertex="1" parent="S200XJqEQrXHh1j5I4fp-404">
          <mxGeometry width="30" height="30" as="geometry" />
        </mxCell>
        <mxCell id="S200XJqEQrXHh1j5I4fp-406" value="gener_id" style="shape=partialRectangle;overflow=hidden;connectable=0;fillColor=none;top=0;left=0;bottom=0;right=0;align=left;spacingLeft=6;" vertex="1" parent="S200XJqEQrXHh1j5I4fp-404">
          <mxGeometry x="30" width="220" height="30" as="geometry" />
        </mxCell>
        <mxCell id="S200XJqEQrXHh1j5I4fp-407" value="" style="shape=partialRectangle;collapsible=0;dropTarget=0;pointerEvents=0;fillColor=none;points=[[0,0.5],[1,0.5]];portConstraint=eastwest;top=0;left=0;right=0;bottom=0;" vertex="1" parent="S200XJqEQrXHh1j5I4fp-400">
          <mxGeometry y="90" width="250" height="30" as="geometry" />
        </mxCell>
        <mxCell id="S200XJqEQrXHh1j5I4fp-408" value="" style="shape=partialRectangle;overflow=hidden;connectable=0;fillColor=none;top=0;left=0;bottom=0;right=0;" vertex="1" parent="S200XJqEQrXHh1j5I4fp-407">
          <mxGeometry width="30" height="30" as="geometry" />
        </mxCell>
        <mxCell id="S200XJqEQrXHh1j5I4fp-409" value="" style="shape=partialRectangle;overflow=hidden;connectable=0;fillColor=none;top=0;left=0;bottom=0;right=0;align=left;spacingLeft=6;" vertex="1" parent="S200XJqEQrXHh1j5I4fp-407">
          <mxGeometry x="30" width="220" height="30" as="geometry" />
        </mxCell>
        <mxCell id="S200XJqEQrXHh1j5I4fp-410" value="" style="shape=partialRectangle;collapsible=0;dropTarget=0;pointerEvents=0;fillColor=none;points=[[0,0.5],[1,0.5]];portConstraint=eastwest;top=0;left=0;right=0;bottom=0;" vertex="1" parent="S200XJqEQrXHh1j5I4fp-400">
          <mxGeometry y="120" width="250" height="20" as="geometry" />
        </mxCell>
        <mxCell id="S200XJqEQrXHh1j5I4fp-411" value="" style="shape=partialRectangle;overflow=hidden;connectable=0;fillColor=none;top=0;left=0;bottom=0;right=0;" vertex="1" parent="S200XJqEQrXHh1j5I4fp-410">
          <mxGeometry width="30" height="20" as="geometry" />
        </mxCell>
        <mxCell id="S200XJqEQrXHh1j5I4fp-412" value="" style="shape=partialRectangle;overflow=hidden;connectable=0;fillColor=none;top=0;left=0;bottom=0;right=0;align=left;spacingLeft=6;" vertex="1" parent="S200XJqEQrXHh1j5I4fp-410">
          <mxGeometry x="30" width="220" height="20" as="geometry" />
        </mxCell>
        <mxCell id="S200XJqEQrXHh1j5I4fp-413" style="edgeStyle=orthogonalEdgeStyle;rounded=0;orthogonalLoop=1;jettySize=auto;html=1;exitX=0;exitY=0.5;exitDx=0;exitDy=0;" edge="1" parent="1" source="S200XJqEQrXHh1j5I4fp-267" target="S200XJqEQrXHh1j5I4fp-365">
          <mxGeometry relative="1" as="geometry">
            <Array as="points">
              <mxPoint x="460" y="875" />
              <mxPoint x="460" y="905" />
            </Array>
          </mxGeometry>
        </mxCell>
        <mxCell id="S200XJqEQrXHh1j5I4fp-414" style="edgeStyle=orthogonalEdgeStyle;rounded=0;orthogonalLoop=1;jettySize=auto;html=1;exitX=1;exitY=0.5;exitDx=0;exitDy=0;entryX=1;entryY=0.5;entryDx=0;entryDy=0;" edge="1" parent="1" source="S200XJqEQrXHh1j5I4fp-342" target="S200XJqEQrXHh1j5I4fp-378">
          <mxGeometry relative="1" as="geometry">
            <mxPoint x="360" y="1010" as="targetPoint" />
            <Array as="points">
              <mxPoint x="1030" y="515" />
              <mxPoint x="1030" y="1085" />
            </Array>
          </mxGeometry>
        </mxCell>
        <mxCell id="S200XJqEQrXHh1j5I4fp-415" style="edgeStyle=orthogonalEdgeStyle;rounded=0;orthogonalLoop=1;jettySize=auto;html=1;entryX=1;entryY=0.5;entryDx=0;entryDy=0;" edge="1" parent="1" target="S200XJqEQrXHh1j5I4fp-404">
          <mxGeometry relative="1" as="geometry">
            <mxPoint x="710" y="690" as="targetPoint" />
            <mxPoint x="980" y="305" as="sourcePoint" />
            <Array as="points">
              <mxPoint x="1060" y="305" />
              <mxPoint x="1060" y="1530" />
              <mxPoint x="370" y="1530" />
              <mxPoint x="370" y="1275" />
            </Array>
          </mxGeometry>
        </mxCell>
        <mxCell id="S200XJqEQrXHh1j5I4fp-144" value="playlist_keyword" style="shape=table;startSize=30;container=1;collapsible=1;childLayout=tableLayout;fixedRows=1;rowLines=0;fontStyle=1;align=center;resizeLast=1;" vertex="1" parent="1">
          <mxGeometry x="100" y="1900" width="250" height="170" as="geometry" />
        </mxCell>
        <mxCell id="S200XJqEQrXHh1j5I4fp-145" value="" style="shape=partialRectangle;collapsible=0;dropTarget=0;pointerEvents=0;fillColor=none;points=[[0,0.5],[1,0.5]];portConstraint=eastwest;top=0;left=0;right=0;bottom=1;" vertex="1" parent="S200XJqEQrXHh1j5I4fp-144">
          <mxGeometry y="30" width="250" height="30" as="geometry" />
        </mxCell>
        <mxCell id="S200XJqEQrXHh1j5I4fp-146" value="PK" style="shape=partialRectangle;overflow=hidden;connectable=0;fillColor=none;top=0;left=0;bottom=0;right=0;fontStyle=1;" vertex="1" parent="S200XJqEQrXHh1j5I4fp-145">
          <mxGeometry width="30" height="30" as="geometry" />
        </mxCell>
        <mxCell id="S200XJqEQrXHh1j5I4fp-147" value="Â id" style="shape=partialRectangle;overflow=hidden;connectable=0;fillColor=none;top=0;left=0;bottom=0;right=0;align=left;spacingLeft=6;fontStyle=5;" vertex="1" parent="S200XJqEQrXHh1j5I4fp-145">
          <mxGeometry x="30" width="220" height="30" as="geometry" />
        </mxCell>
        <mxCell id="S200XJqEQrXHh1j5I4fp-148" value="" style="shape=partialRectangle;collapsible=0;dropTarget=0;pointerEvents=0;fillColor=none;points=[[0,0.5],[1,0.5]];portConstraint=eastwest;top=0;left=0;right=0;bottom=0;" vertex="1" parent="S200XJqEQrXHh1j5I4fp-144">
          <mxGeometry y="60" width="250" height="30" as="geometry" />
        </mxCell>
        <mxCell id="S200XJqEQrXHh1j5I4fp-149" value="" style="shape=partialRectangle;overflow=hidden;connectable=0;fillColor=none;top=0;left=0;bottom=0;right=0;" vertex="1" parent="S200XJqEQrXHh1j5I4fp-148">
          <mxGeometry width="30" height="30" as="geometry" />
        </mxCell>
        <mxCell id="S200XJqEQrXHh1j5I4fp-150" value="keyword_id" style="shape=partialRectangle;overflow=hidden;connectable=0;fillColor=none;top=0;left=0;bottom=0;right=0;align=left;spacingLeft=6;" vertex="1" parent="S200XJqEQrXHh1j5I4fp-148">
          <mxGeometry x="30" width="220" height="30" as="geometry" />
        </mxCell>
        <mxCell id="S200XJqEQrXHh1j5I4fp-151" value="" style="shape=partialRectangle;collapsible=0;dropTarget=0;pointerEvents=0;fillColor=none;points=[[0,0.5],[1,0.5]];portConstraint=eastwest;top=0;left=0;right=0;bottom=0;" vertex="1" parent="S200XJqEQrXHh1j5I4fp-144">
          <mxGeometry y="90" width="250" height="30" as="geometry" />
        </mxCell>
        <mxCell id="S200XJqEQrXHh1j5I4fp-152" value="" style="shape=partialRectangle;overflow=hidden;connectable=0;fillColor=none;top=0;left=0;bottom=0;right=0;" vertex="1" parent="S200XJqEQrXHh1j5I4fp-151">
          <mxGeometry width="30" height="30" as="geometry" />
        </mxCell>
        <mxCell id="S200XJqEQrXHh1j5I4fp-153" value="playlist_id" style="shape=partialRectangle;overflow=hidden;connectable=0;fillColor=none;top=0;left=0;bottom=0;right=0;align=left;spacingLeft=6;" vertex="1" parent="S200XJqEQrXHh1j5I4fp-151">
          <mxGeometry x="30" width="220" height="30" as="geometry" />
        </mxCell>
        <mxCell id="S200XJqEQrXHh1j5I4fp-154" value="" style="shape=partialRectangle;collapsible=0;dropTarget=0;pointerEvents=0;fillColor=none;points=[[0,0.5],[1,0.5]];portConstraint=eastwest;top=0;left=0;right=0;bottom=0;" vertex="1" parent="S200XJqEQrXHh1j5I4fp-144">
          <mxGeometry y="120" width="250" height="30" as="geometry" />
        </mxCell>
        <mxCell id="S200XJqEQrXHh1j5I4fp-155" value="" style="shape=partialRectangle;overflow=hidden;connectable=0;fillColor=none;top=0;left=0;bottom=0;right=0;" vertex="1" parent="S200XJqEQrXHh1j5I4fp-154">
          <mxGeometry width="30" height="30" as="geometry" />
        </mxCell>
        <mxCell id="S200XJqEQrXHh1j5I4fp-156" value="" style="shape=partialRectangle;overflow=hidden;connectable=0;fillColor=none;top=0;left=0;bottom=0;right=0;align=left;spacingLeft=6;" vertex="1" parent="S200XJqEQrXHh1j5I4fp-154">
          <mxGeometry x="30" width="220" height="30" as="geometry" />
        </mxCell>
        <mxCell id="S200XJqEQrXHh1j5I4fp-416" value="user_fav_album" style="shape=table;startSize=30;container=1;collapsible=1;childLayout=tableLayout;fixedRows=1;rowLines=0;fontStyle=1;align=center;resizeLast=1;" vertex="1" parent="1">
          <mxGeometry x="90" y="1580" width="250" height="140" as="geometry" />
        </mxCell>
        <mxCell id="S200XJqEQrXHh1j5I4fp-417" value="" style="shape=partialRectangle;collapsible=0;dropTarget=0;pointerEvents=0;fillColor=none;points=[[0,0.5],[1,0.5]];portConstraint=eastwest;top=0;left=0;right=0;bottom=1;" vertex="1" parent="S200XJqEQrXHh1j5I4fp-416">
          <mxGeometry y="30" width="250" height="30" as="geometry" />
        </mxCell>
        <mxCell id="S200XJqEQrXHh1j5I4fp-418" value="PK" style="shape=partialRectangle;overflow=hidden;connectable=0;fillColor=none;top=0;left=0;bottom=0;right=0;fontStyle=1;" vertex="1" parent="S200XJqEQrXHh1j5I4fp-417">
          <mxGeometry width="30" height="30" as="geometry" />
        </mxCell>
        <mxCell id="S200XJqEQrXHh1j5I4fp-419" value="id" style="shape=partialRectangle;overflow=hidden;connectable=0;fillColor=none;top=0;left=0;bottom=0;right=0;align=left;spacingLeft=6;fontStyle=5;" vertex="1" parent="S200XJqEQrXHh1j5I4fp-417">
          <mxGeometry x="30" width="220" height="30" as="geometry" />
        </mxCell>
        <mxCell id="S200XJqEQrXHh1j5I4fp-420" value="" style="shape=partialRectangle;collapsible=0;dropTarget=0;pointerEvents=0;fillColor=none;points=[[0,0.5],[1,0.5]];portConstraint=eastwest;top=0;left=0;right=0;bottom=0;" vertex="1" parent="S200XJqEQrXHh1j5I4fp-416">
          <mxGeometry y="60" width="250" height="30" as="geometry" />
        </mxCell>
        <mxCell id="S200XJqEQrXHh1j5I4fp-421" value="" style="shape=partialRectangle;overflow=hidden;connectable=0;fillColor=none;top=0;left=0;bottom=0;right=0;" vertex="1" parent="S200XJqEQrXHh1j5I4fp-420">
          <mxGeometry width="30" height="30" as="geometry" />
        </mxCell>
        <mxCell id="S200XJqEQrXHh1j5I4fp-422" value="album_id" style="shape=partialRectangle;overflow=hidden;connectable=0;fillColor=none;top=0;left=0;bottom=0;right=0;align=left;spacingLeft=6;" vertex="1" parent="S200XJqEQrXHh1j5I4fp-420">
          <mxGeometry x="30" width="220" height="30" as="geometry" />
        </mxCell>
        <mxCell id="S200XJqEQrXHh1j5I4fp-423" value="" style="shape=partialRectangle;collapsible=0;dropTarget=0;pointerEvents=0;fillColor=none;points=[[0,0.5],[1,0.5]];portConstraint=eastwest;top=0;left=0;right=0;bottom=0;" vertex="1" parent="S200XJqEQrXHh1j5I4fp-416">
          <mxGeometry y="90" width="250" height="30" as="geometry" />
        </mxCell>
        <mxCell id="S200XJqEQrXHh1j5I4fp-424" value="" style="shape=partialRectangle;overflow=hidden;connectable=0;fillColor=none;top=0;left=0;bottom=0;right=0;" vertex="1" parent="S200XJqEQrXHh1j5I4fp-423">
          <mxGeometry width="30" height="30" as="geometry" />
        </mxCell>
        <mxCell id="S200XJqEQrXHh1j5I4fp-425" value="" style="shape=partialRectangle;overflow=hidden;connectable=0;fillColor=none;top=0;left=0;bottom=0;right=0;align=left;spacingLeft=6;" vertex="1" parent="S200XJqEQrXHh1j5I4fp-423">
          <mxGeometry x="30" width="220" height="30" as="geometry" />
        </mxCell>
        <mxCell id="S200XJqEQrXHh1j5I4fp-426" value="" style="shape=partialRectangle;collapsible=0;dropTarget=0;pointerEvents=0;fillColor=none;points=[[0,0.5],[1,0.5]];portConstraint=eastwest;top=0;left=0;right=0;bottom=0;" vertex="1" parent="S200XJqEQrXHh1j5I4fp-416">
          <mxGeometry y="120" width="250" height="20" as="geometry" />
        </mxCell>
        <mxCell id="S200XJqEQrXHh1j5I4fp-427" value="" style="shape=partialRectangle;overflow=hidden;connectable=0;fillColor=none;top=0;left=0;bottom=0;right=0;" vertex="1" parent="S200XJqEQrXHh1j5I4fp-426">
          <mxGeometry width="30" height="20" as="geometry" />
        </mxCell>
        <mxCell id="S200XJqEQrXHh1j5I4fp-428" value="" style="shape=partialRectangle;overflow=hidden;connectable=0;fillColor=none;top=0;left=0;bottom=0;right=0;align=left;spacingLeft=6;" vertex="1" parent="S200XJqEQrXHh1j5I4fp-426">
          <mxGeometry x="30" width="220" height="20" as="geometry" />
        </mxCell>
        <mxCell id="S200XJqEQrXHh1j5I4fp-429" style="edgeStyle=orthogonalEdgeStyle;rounded=0;orthogonalLoop=1;jettySize=auto;html=1;entryX=1;entryY=0.5;entryDx=0;entryDy=0;" edge="1" parent="1" target="S200XJqEQrXHh1j5I4fp-420">
          <mxGeometry relative="1" as="geometry">
            <mxPoint x="680" y="1530" as="targetPoint" />
            <mxPoint x="990" y="1175" as="sourcePoint" />
            <Array as="points">
              <mxPoint x="1070" y="1175" />
              <mxPoint x="1070" y="1655" />
            </Array>
          </mxGeometry>
        </mxCell>
      </root>
    </mxGraphModel>
  </diagram>
</mxfile>
